<svg xmlns="http://www.w3.org/2000/svg" viewBox="0 0 477.5 191.3"><linearGradient id="a" gradientUnits="userSpaceOnUse" x1="2645.851" y1="2762.459" x2="2716.568" y2="2762.459" gradientTransform="rotate(180 1502.206 1420.856)"><stop offset="0" stop-color="#e55b33"/><stop offset="1" stop-color="#ee8e22"/></linearGradient><path fill="url(#a)" d="M287.8 96.6l32.4-51.4 38.3-9.5c.2 0-44 87.3-44 87.3l-26.7-26.4z"/><linearGradient id="b" gradientUnits="userSpaceOnUse" x1="199.702" y1="2762.459" x2="270.603" y2="2762.459" gradientTransform="matrix(1 0 0 -1 -80 2841.712)"><stop offset="0" stop-color="#e55b33"/><stop offset="1" stop-color="#ee8e22"/></linearGradient><path fill="url(#b)" d="M190.6 96.7L158 45.1l-38.3-9.5c-.2 0 44 87.3 44 87.3l26.9-26.2z"/><linearGradient id="c" gradientUnits="userSpaceOnUse" x1="285.476" y1="40.91" x2="194.867" y2="40.91"><stop offset="0" stop-color="#e55b33"/><stop offset="1" stop-color="#ee8e22"/></linearGradient><path fill="url(#c)" d="M194.9 61.8S238.8 0 239.6 0c.7 0 45.9 61.8 45.9 61.8l-12.8 19.8s-32.8-32.7-33.1-32.7c-.2 0-33.7 32.9-33.7 32.9l-11-20z"/><linearGradient id="d" gradientUnits="userSpaceOnUse" x1="281.221" y1="105.492" x2="198.149" y2="105.492"><stop offset="0" stop-color="#e55b33"/><stop offset="1" stop-color="#ee8e22"/></linearGradient><path fill="url(#d)" d="M198.1 126.7l41.5-42.4 41.6 42.4h-27.1l-14.2-15.5-15.2 15.5z"/><g fill="#FFF"><path d="M22.7 182l-3.8 6.8c-.9 1.7-1.9 2.5-2.8 2.6-1 .1-2-.8-2.9-2.6L0 164.6h5.9l10.3 19.2 3.7-6.9-6.7-12.3h5.9l10.3 19.2 10.4-19.2h5.9l-13.6 24.2c-.9 1.7-1.8 2.5-2.7 2.6-1 .1-2-.8-2.9-2.6l-3.8-6.8zM55.7 186.3h18.2v4.6H51.1v-26.3h22.8v4.6H55.7v17.1zm17-11v4.6h-15v-4.6h15zM108.7 177.9c1.9 1.4 2.8 3.2 2.8 5.4 0 2.1-.9 3.8-2.6 5.2-1.9 1.6-4.6 2.4-7.9 2.4H82.1v-26.3H101c3.3 0 5.9.8 7.9 2.5 1.8 1.5 2.6 3.3 2.6 5.4 0 2-1 3.9-2.8 5.4zm-7 8.4c1.7 0 3-.3 4-1 .9-.6 1.3-1.3 1.3-2.1s-.5-1.5-1.4-2.1c-1-.7-2.3-1-4-1H89.3v-4.6h12.3c1.7 0 3-.3 4-1 .9-.6 1.4-1.4 1.4-2.2 0-.9-.4-1.6-1.3-2.2-1-.7-2.3-1-4-1h-15v17.2h15zM157.8 183.5h-12.5l2.8-4.6h7l-4.6-7.6-11.9 19.5h-5.9L147 167c.5-.8 1.1-1.4 1.8-1.9.6-.4 1.2-.7 1.7-.7s1.1.1 1.8.5c.8.5 1.4 1.2 1.9 2l14 23.8h-5.9l-4.5-7.2zM172.1 190.9v-26.3h4.6v21.8h18.1v4.6h-22.7zM214.6 169.1v21.8H210v-21.8h-10.4v-4.6H225v4.6h-10.4zM235.6 186.3h18.2v4.6H231v-26.3h22.7v4.6h-18.2v17.1zm17-11v4.6h-15.1v-4.6h15.1zM292.6 190.9h-6.8l-7.4-7.4h-9.9v-4.6h12.3c2.1 0 3.8-.5 4.9-1.6 1-1 1.4-2.1 1.4-3.5-.2-3.1-2.3-4.7-6.3-4.7h-15v21.8h-4.6v-26.3h18.9c4 0 7 1 9 2.9 1.7 1.6 2.6 3.7 2.7 6.4.1 2.1-.5 3.9-1.7 5.5-1.3 1.8-3.2 3-5.6 3.6l8.1 7.9zM321.6 189.6l-16.9-17v18.3h-4.6v-24c0-.7.2-1.3.5-1.7.4-.4.8-.6 1.4-.6.9 0 1.7.5 2.6 1.4l16.9 16.9v-18.3h4.6v24.1c0 1.7-.6 2.5-1.7 2.5-.8 0-1.8-.6-2.8-1.6zM358 183.5h-12.5l2.8-4.6h7l-4.6-7.6-11.9 19.5h-5.9l14.3-23.8c.5-.8 1.1-1.4 1.8-1.9.6-.4 1.2-.7 1.7-.7s1.1.1 1.8.5c.8.5 1.4 1.2 1.9 2l14 23.8h-5.9l-4.5-7.2zM385.4 169.1v21.8h-4.6v-21.8h-10.4v-4.6h25.4v4.6h-10.4zM402.6 190.9v-26.3h4.6v26.3h-4.6zM434.5 188.7c-1 1.7-2 2.5-2.7 2.6-.9.1-1.9-.8-3-2.6l-14.7-24.2h5.9l11.8 19.6 11.8-19.6h5.9l-15 24.2zM459.3 186.3h18.2v4.6h-22.8v-26.3h22.8v4.6h-18.2v17.1zm17-11v4.6h-15.1v-4.6h15.1z"/></g></svg>