<svg xmlns="http://www.w3.org/2000/svg" style="border: 0 !important;clip: rect(0 0 0 0) !important;height: 1px !important;margin: -1px !important;overflow: hidden !important;padding: 0 !important; position: absolute !important;width: 1px !important;">
    <symbol id="cup-icon" viewBox="0 0 950.232 950.233">
      <path d="M946.029 122.516c-2.602-3.9-7-6.6-13.201-6.6H806.629c-4.9-33.1-11.9-57.2-14.801-66.3 3.201-3.5 6.4-6.9 9.6-10.3 5.102-5.4 5.4-13.9 0-19.3-1.699-1.7-3.799-2.8-6.1-3.5-1.799-.9-3.9-1.5-6.299-1.5H160.928c-2.5 0-4.6.5-6.3 1.5-2.3.6-4.4 1.8-6.1 3.5-5.4 5.4-5.1 13.9 0 19.3 3.2 3.4 6.4 6.9 9.6 10.3-2.9 9.1-9.8 33.1-14.8 66.3h-125.8c-5.6 0-9.7 2.2-12.4 5.5-3.3 3.1-5.4 7.3-5.1 11.9 6.4 85.7 39.4 167.1 93.6 233.7 57 70 136.2 120.899 223.2 144.1-4.101 15-5.9 38.7 18.5 48.601 16.6 6.8 34.899 14.8 47 28.5 12.899 14.6 8.2 30.8-5 43.399-5 4.8-6.601 9.101-5 15.9l33.2 186.899h-31.7c-6.101 0-15.601 2.4-21 5.4l-58.601 32.1c-5.399 3-9.8 10.4-9.8 16.5v35.601c0 6.2 5 11.2 11.2 11.2h359c6.2 0 11.2-5 11.2-11.2l-.101-36c0-6.601-3.699-12.7-9.5-15.9-14.899-8.2-43.899-24-59-32.3-5.399-3-14.8-5.4-21-5.4h-31.5s33.101-186.1 33.2-186.899c.9-5 1.2-9.5-2.3-13.5-3.6-4.101-7.8-7.3-10.8-11.9-4.3-6.7-6.4-14.5-3.9-22.2 5.2-16.3 24.101-26.3 38.3-33.199 5.101-2.5 10.4-4.801 15.7-7 24.3-9.9 22.5-33.601 18.5-48.601 86.999-23.3 166.2-74.1 223.2-144.1 54.199-66.6 87.199-148 93.6-233.7.102-4.001-1.597-7.801-4.197-10.801zm-743.3 291.8c-17.5-11.6-28.2-19.9-43.7-33.8-9.4-8.5-18.5-17.3-27.2-26.6-4.5-4.8-8.9-9.7-13.1-14.7-2-2.3-3.9-4.6-5.8-7-1-1.2-1.9-2.4-2.8-3.5-.1-.2-1.3-1.7-1.7-2.2-15.1-19.8-28.5-40.9-39.7-63.1-3-5.9-5.8-11.8-8.5-17.8l-1.8-4.2c-.1-.2-1-2.5-1.2-2.8-1-2.4-2-4.8-2.9-7.3-4.6-11.9-8.7-23.9-12.1-36.1-3.4-12.3-6.4-24.8-8.6-37.4-.5-2.8-.9-5.6-1.4-8.4h102.2c-4.8 86.3 12.2 204.2 115.3 291.7-16.301-7.9-32-16.8-47-26.8zm427.8-204.4l-91.5 66.5 35 107.6c2.5 7.6-.801 9.899-7.2 5.2l-91.5-66.5-91.601 66.6c-6.399 4.7-9.699 2.3-7.199-5.2l35-107.6-91.5-66.5c-6.4-4.7-5.2-8.5 2.8-8.5h113.2l35-107.6c2.5-7.6 6.4-7.6 8.9 0l35 107.6h113.2c7.6-.1 8.9 3.7 2.4 8.4zm277.1-52.1c-2.201 12.6-5.1 25.1-8.6 37.4-3.4 12.2-7.5 24.3-12.102 36.1-.898 2.4-1.898 4.9-2.898 7.3-.102.3-1.102 2.6-1.201 2.8l-1.799 4.2c-2.701 6-5.5 11.9-8.5 17.8-11.201 22.2-24.602 43.3-39.701 63.1-.4.5-1.6 2.1-1.699 2.2-.9 1.2-1.9 2.4-2.801 3.5-1.9 2.4-3.799 4.7-5.799 7-4.201 5-8.602 9.9-13.102 14.7-8.6 9.3-17.699 18.1-27.199 26.6-15.5 13.899-26.301 22.1-43.699 33.8-15 10-30.701 18.9-46.9 26.9 103-87.601 120-205.5 115.1-291.8h102.199c-.399 2.8-.899 5.6-1.299 8.4z"/>
    </symbol>
    <symbol id="envelop-icon" viewBox="0 0 612.011 612.011">
      <path d="M612 156.232c0-13.065-5.16-24.885-13.393-33.897-.137-.179-.168-.39-.316-.57-.137-.158-.327-.222-.475-.369-9.361-9.794-22.553-15.988-37.243-15.988H51.437c-14.69 0-27.882 6.194-37.264 15.988-.137.147-.338.211-.475.38-.148.169-.179.39-.316.57C5.161 131.358 0 143.167 0 156.232v299.546c0 13.382 5.372 25.486 13.962 34.573.169.189.222.422.412.602.063.063.137.073.201.137 9.361 9.541 22.394 15.514 36.863 15.514h509.136c14.469 0 27.513-5.983 36.863-15.523.063-.054.137-.074.2-.127.18-.169.232-.401.401-.581 8.601-9.086 13.973-21.201 13.973-34.594V156.232H612zM411.687 290.175l176.368-146.238c1.73 3.757 2.754 7.904 2.754 12.294v299.546c0 3.969-.823 7.736-2.248 11.208l-176.874-176.81zm148.886-163.82c4.443 0 8.633 1.013 12.442 2.723l-267.01 221.378-267.01-221.378c3.81-1.709 8-2.723 12.442-2.723h509.136zM23.45 466.976c-1.425-3.461-2.248-7.239-2.248-11.208V156.232c0-4.39 1.024-8.538 2.754-12.294l176.368 146.238-176.874 176.8zm27.987 18.669c-4.896 0-9.456-1.267-13.55-3.313l178.731-178.658 82.58 68.471a10.63 10.63 0 0 0 6.807 2.459 10.63 10.63 0 0 0 6.807-2.459l82.58-68.471 178.731 178.658c-4.095 2.047-8.653 3.313-13.551 3.313H51.437z"/>
    </symbol>
    <symbol id="fb-icon" viewBox="0 0 16 16">
      <path d="M7.2 16V8.5h-2V5.8h2V3.5C7.2 1.7 8.4 0 11.1 0c1.1 0 1.9.1 1.9.1l-.1 2.5h-1.7c-1 0-1.1.4-1.1 1.2v2H13l-.1 2.7h-2.8V16H7.2z"/>
    </symbol>
    <symbol id="film-icon" viewBox="0 0 611.921 611.921">
      <path d="M598.506 69.911H13.356C5.921 69.911 0 75.832 0 83.268v445.386c0 7.436 5.921 13.357 13.357 13.357h585.151c7.436 0 13.357-5.921 13.357-13.357V83.268c.755-7.436-5.924-13.357-13.359-13.357zm-97.422 362.835H27.471V178.418H585.082v254.329h-83.998zm84.065-281.799h-69.882V96.694h69.882v54.253zm-97.422 0h-70.639V96.694h69.882v54.253h.757zm-98.179 0h-69.882V96.694h69.882v54.253zm-97.352 0h-69.951V96.694h69.882l.069 54.253zm-97.422 0h-69.882V96.694h69.882v54.253zM27.471 97.382h69.882v54.253H27.471V97.382zm0 362.904h69.882v54.253H27.471v-54.253zm97.421 0h69.882v54.253h-69.882v-54.253zm97.353 0h69.882v54.253h-69.882v-54.253zm97.422 0h69.882v54.253h-69.882v-54.253zm97.421 0h69.882v54.253h-69.882v-54.253zm168.061 54.253h-69.882v-54.253h69.882v54.253zM381.424 292.982l-115.253-66.921c-4.475-2.203-9.639-2.203-13.357 0-4.475 2.203-6.678 6.678-6.678 11.911v133.085c0 5.233 2.961 9.639 6.678 11.911 2.203 1.515 4.475 1.515 6.678 1.515 2.203 0 4.475-.757 6.678-1.515l115.253-66.921c4.475-2.203 6.678-6.678 6.678-11.911.002-3.718-2.959-8.193-6.677-11.154zm-108.575 55.011v-85.511l74.357 43.1-74.357 42.411z"/>
    </symbol>
    <symbol id="menu-close-icon" viewBox="0 0 212.982 212.982">
      <path d="M131.804 106.491l75.936-75.936c6.99-6.99 6.99-18.323 0-25.312-6.99-6.99-18.322-6.99-25.312 0L106.491 81.18 30.554 5.242c-6.99-6.99-18.322-6.99-25.312 0-6.989 6.99-6.989 18.323 0 25.312l75.937 75.936-75.937 75.937c-6.989 6.99-6.989 18.323 0 25.312 6.99 6.99 18.322 6.99 25.312 0l75.937-75.937 75.937 75.937c6.989 6.99 18.322 6.99 25.312 0 6.99-6.99 6.99-18.322 0-25.312l-75.936-75.936z" fill-rule="evenodd" clip-rule="evenodd"/>
    </symbol>
    <symbol id="menu-hamburger-icon" viewBox="0 0 73.168 73.168">
      <path d="M4.242 14.425h64.684c2.344 0 4.242-1.933 4.242-4.324 0-2.385-1.898-4.325-4.242-4.325H4.242C1.898 5.776 0 7.716 0 10.101c0 2.392 1.898 4.324 4.242 4.324zm64.684 17.834H4.242C1.898 32.259 0 34.2 0 36.584c0 2.393 1.898 4.325 4.242 4.325h64.684c2.344 0 4.242-1.933 4.242-4.325 0-2.384-1.898-4.325-4.242-4.325zm0 26.483H4.242C1.898 58.742 0 60.683 0 63.067c0 2.393 1.898 4.325 4.242 4.325h64.684c2.344 0 4.242-1.935 4.242-4.325 0-2.384-1.898-4.325-4.242-4.325z"/>
    </symbol>
    <symbol id="phone-icon" viewBox="0 0 578.106 578.106">
      <path d="M577.83 456.128c1.225 9.385-1.635 17.545-8.568 24.48l-81.396 80.781c-3.672 4.08-8.465 7.551-14.381 10.404-5.916 2.857-11.729 4.693-17.439 5.508-.408 0-1.635.105-3.676.309-2.037.203-4.689.307-7.953.307-7.754 0-20.301-1.326-37.641-3.979s-38.555-9.182-63.645-19.584c-25.096-10.404-53.553-26.012-85.376-46.818-31.823-20.805-65.688-49.367-101.592-85.68-28.56-28.152-52.224-55.08-70.992-80.783-18.768-25.705-33.864-49.471-45.288-71.299-11.425-21.828-19.993-41.616-25.705-59.364S4.59 177.362 2.55 164.51-.306 141.56.102 134.216c.408-7.344.612-11.424.612-12.24.816-5.712 2.652-11.526 5.508-17.442s6.324-10.71 10.404-14.382L98.022 8.756c5.712-5.712 12.24-8.568 19.584-8.568 5.304 0 9.996 1.53 14.076 4.59s7.548 6.834 10.404 11.322l65.484 124.236c3.672 6.528 4.692 13.668 3.06 21.42-1.632 7.752-5.1 14.28-10.404 19.584l-29.988 29.988c-.816.816-1.53 2.142-2.142 3.978s-.918 3.366-.918 4.59c1.632 8.568 5.304 18.36 11.016 29.376 4.896 9.792 12.444 21.726 22.644 35.802s24.684 30.293 43.452 48.653c18.36 18.77 34.68 33.354 48.96 43.76 14.277 10.4 26.215 18.053 35.803 22.949 9.588 4.896 16.932 7.854 22.031 8.871l7.648 1.531c.816 0 2.145-.307 3.979-.918 1.836-.613 3.162-1.326 3.979-2.143l34.883-35.496c7.348-6.527 15.912-9.791 25.705-9.791 6.938 0 12.443 1.223 16.523 3.672h.611l118.115 69.768c8.571 5.308 13.67 12.038 15.303 20.198z"/>
    </symbol>
    <symbol id="twitch-icon" viewBox="0 0 52 52">
      <path d="M9.5 37h10v5a1 1 0 0 0 1.707.707L26.914 37H38c.265 0 .52-.105.707-.293l6.5-6.5a.996.996 0 0 0 .293-.707V6a1 1 0 0 0-1-1h-35a1 1 0 0 0-1 1v30a1 1 0 0 0 1 1zm1-30h33v22.086L37.586 35H26.5a.997.997 0 0 0-.707.293L21.5 39.586V36a1 1 0 0 0-1-1h-10V7z"/><path d="M50.5 0H5a1 1 0 0 0-.864.496l-3.5 6A1.003 1.003 0 0 0 .5 7v37a1 1 0 0 0 1 1h11v6a1 1 0 0 0 1 1h7c.247 0 .485-.092.669-.257L28.662 45H38c.251 0 .493-.095.677-.264l12.5-11.5a1 1 0 0 0 .323-.736V1a1 1 0 0 0-1-1zm-1 32.062L37.61 43h-9.332c-.247 0-.485.092-.669.257L20.116 50H14.5v-6a1 1 0 0 0-1-1h-11V7.271L5.574 2H49.5v30.062z"/><path d="M21.5 28h4a1 1 0 0 0 1-1V14a1 1 0 0 0-1-1h-4a1 1 0 0 0-1 1v13a1 1 0 0 0 1 1zm1-13h2v11h-2V15zM31.5 28h4a1 1 0 0 0 1-1V14a1 1 0 0 0-1-1h-4a1 1 0 0 0-1 1v13a1 1 0 0 0 1 1zm1-13h2v11h-2V15z"/>
    </symbol>
    <symbol id="twitter-icon" viewBox="0 0 97.637 97.637">
      <path d="M97.523 18.526a.482.482 0 0 0-.568-.131 39.055 39.055 0 0 1-9.153 2.776 20.299 20.299 0 0 0 7.143-10.035.484.484 0 0 0-.709-.565 39.147 39.147 0 0 1-12.18 4.701 20.408 20.408 0 0 0-14.644-6.219c-11.204 0-20.318 9.114-20.318 20.317 0 1.355.131 2.697.391 4-15.518-.958-30.028-8.408-39.894-20.509a.484.484 0 0 0-.795.062 20.303 20.303 0 0 0-2.751 10.215 20.3 20.3 0 0 0 7.649 15.896 19.42 19.42 0 0 1-7.089-2.292.483.483 0 0 0-.721.413l-.002.26c0 8.946 5.895 16.801 14.282 19.409a19.514 19.514 0 0 1-6.754-.098.486.486 0 0 0-.553.623A20.314 20.314 0 0 0 28.494 71.39c-6.785 4.971-14.805 7.59-23.279 7.59-1.561 0-3.133-.093-4.673-.274a.492.492 0 0 0-.514.317.485.485 0 0 0 .195.572 56.693 56.693 0 0 0 30.664 8.988c35.625 0 56.913-28.938 56.913-56.914 0-.779-.015-1.554-.046-2.327a40.519 40.519 0 0 0 9.802-10.235.486.486 0 0 0-.033-.581z"/>
    </symbol>
    <symbol id="youtube-icon" viewBox="0 0 96.875 96.875">
      <path d="M95.201 25.538c-1.186-5.152-5.4-8.953-10.473-9.52-12.013-1.341-24.172-1.348-36.275-1.341-12.105-.007-24.266 0-36.279 1.341-5.07.567-9.281 4.368-10.467 9.52C.019 32.875 0 40.884 0 48.438 0 55.992 0 64 1.688 71.336c1.184 5.151 5.396 8.952 10.469 9.52 12.012 1.342 24.172 1.349 36.277 1.342 12.107.007 24.264 0 36.275-1.342 5.07-.567 9.285-4.368 10.471-9.52 1.689-7.337 1.695-15.345 1.695-22.898 0-7.554.014-15.563-1.674-22.9zM35.936 63.474V31.437a497491.15 497491.15 0 0 0 30.798 16.068c-10.3 5.342-20.504 10.631-30.798 15.969z"/>
    </symbol></svg>