<?xml version="1.0" encoding="utf-8"?>
<!-- Generator: Adobe Illustrator 19.0.0, SVG Export Plug-In . SVG Version: 6.00 Build 0)  -->
<svg version="1.1" id="Layer_1" xmlns="http://www.w3.org/2000/svg" xmlns:xlink="http://www.w3.org/1999/xlink" x="0px" y="0px"
	 viewBox="0 0 468.5 65.5" style="enable-background:new 0 0 468.5 65.5;" xml:space="preserve">
<style type="text/css">
	<!-- .st0{fill-rule:evenodd;clip-rule:evenodd;} -->
</style>
<path  d="M18.6,52.6c0,5.1-4.2,9.3-9.3,9.3c-5.1,0-9.3-4.2-9.3-9.3V9.3C0,4.2,4.2,0,9.3,0c2.6,0,4.9,1.1,6.6,2.8l15,15
	L46,2.7c3.6-3.6,9.5-3.6,13.2,0c1.8,1.8,2.7,4.2,2.7,6.6h0v43.3c0,5.1-4.2,9.3-9.3,9.3s-9.3-4.2-9.3-9.3V31.8l-5.8,5.8
	c-3.6,3.6-9.5,3.6-13.2,0l-5.8-5.8V52.6L18.6,52.6z M459.8,40.2l7.2,10.9c2.8,4.3,1.6,10-2.7,12.8c-4.3,2.8-10,1.6-12.8-2.7
	l-10.8-16.4H436v7.7c0,5.1-4.2,9.3-9.3,9.3s-9.3-4.2-9.3-9.3v-17V9.3c0-5.1,4.2-9.3,9.3-9.3h20.8c11.9,0,20.4,11.3,20.4,22.4
	C467.9,31.6,464.2,37,459.8,40.2L459.8,40.2z M356.3,12.7c-1.9-4.8,0.4-10.1,5.2-12c4.8-1.9,10.1,0.4,12,5.2l8.6,21.7l8.6-21.7
	c1.9-4.8,7.3-7.1,12-5.2c4.8,1.9,7.1,7.3,5.2,12L390.8,56h0c-0.9,2.3-2.7,4.2-5.2,5.2c-4.8,1.9-10.1-0.4-12-5.2L356.3,12.7
	L356.3,12.7z M337.5,50.1l2.3,5.9c1.9,4.8,7.3,7.1,12,5.2c4.8-1.9,7.1-7.3,5.2-12L339.8,5.9h0c-0.9-2.3-2.7-4.2-5.2-5.2
	c-4.8-1.9-10.1,0.4-12,5.2l-17.3,43.3c-1.9,4.8,0.4,10.1,5.2,12c4.8,1.9,10.1-0.4,12-5.2l2.3-5.9H337.5L337.5,50.1z M261.9,18.6
	c-5.1,0-9.3-4.2-9.3-9.3s4.2-9.3,9.3-9.3h26.9c5.1,0,9.3,4.2,9.3,9.3c0,2-0.6,3.9-1.7,5.4l-17.8,28.6h10.2c5.1,0,9.3,4.2,9.3,9.3
	c0,5.1-4.2,9.3-9.3,9.3h-26.9v0c-1.7,0-3.4-0.5-4.9-1.4c-4.4-2.7-5.7-8.4-3-12.8l18.1-29.1H261.9L261.9,18.6z M224.9,50.1h-12.6
	l-2.3,5.9c-1.9,4.8-7.3,7.1-12,5.2c-4.8-1.9-7.1-7.3-5.2-12L210,5.9c1.9-4.8,7.3-7.1,12-5.2c2.5,1,4.3,2.9,5.2,5.2h0l17.3,43.3
	c1.9,4.8-0.4,10.1-5.2,12c-4.8,1.9-10.1-0.4-12-5.2L224.9,50.1L224.9,50.1z M163.2,43c-10.9-1.5-9.1-16,1.9-16h13.9
	c5.1,0,9.3,2.7,9.3,7.9c0,0.7-0.1,1.4-0.2,2.1c0,0.7-0.1,1.4-0.3,2.1c-1.8,6.7-5.8,12.4-11.1,16.4c-5.2,4-11.7,6.4-18.7,6.4
	c-8.5,0-16.3-3.5-21.9-9.1c-5.6-5.6-9.1-13.3-9.1-21.9s3.5-16.3,9.1-21.9c5.6-5.6,13.3-9.1,21.9-9.1c3.6,0,7.1,0.7,10.5,1.9
	c3.4,1.2,6.5,3,9.3,5.3c3.9,3.3,4.5,9.1,1.2,13c-3.3,3.9-9.1,4.5-13,1.2c-1.1-0.9-2.3-1.6-3.7-2.1c-1.3-0.5-2.7-0.7-4.2-0.7
	c-3.4,0-6.5,1.4-8.7,3.6c-2.2,2.2-3.6,5.3-3.6,8.7c0,3.4,1.4,6.5,3.6,8.7c2.2,2.2,5.3,3.6,8.7,3.6C158.8,43.3,162.3,43.2,163.2,43
	L163.2,43z M103.1,50.1H90.5L88.2,56c-1.9,4.8-7.3,7.1-12,5.2c-4.8-1.9-7.1-7.3-5.2-12L88.2,5.9c1.9-4.8,7.3-7.1,12-5.2
	c2.5,1,4.3,2.9,5.2,5.2h0l17.3,43.3c1.9,4.8-0.4,10.1-5.2,12c-4.8,1.9-10.1-0.4-12-5.2L103.1,50.1z"/>
</svg>
