<svg xmlns="http://www.w3.org/2000/svg" style="border: 0 !important;clip: rect(0 0 0 0) !important;height: 1px !important;margin: -1px !important;overflow: hidden !important;padding: 0 !important; position: absolute !important;width: 1px !important;">
    <symbol id="briefcase-icon" viewBox="0 0 511.999 511.999">
      <path d="M476.295 119.721H348.813V97.47c0-22.589-18.378-40.967-40.967-40.967H204.154c-22.589 0-40.967 18.377-40.967 40.967v22.251H35.705C16.018 119.721 0 135.738 0 155.426v264.363c0 19.689 16.018 35.706 35.705 35.706h440.588c19.689 0 35.705-16.018 35.705-35.706V155.426c.002-19.688-16.016-35.705-35.703-35.705zM183.586 97.47c0-11.341 9.227-20.569 20.569-20.569h103.692c11.341 0 20.569 9.227 20.569 20.569v22.251h-144.83V97.47zm292.709 337.627H35.705c-8.44 0-15.307-6.866-15.307-15.308V155.426c0-8.44 6.867-15.307 15.307-15.307h440.588c8.44 0 15.307 6.866 15.307 15.307v264.363h.001c.001 8.441-6.867 15.308-15.306 15.308z"/><path d="M435.506 202.556H76.494c-5.633 0-10.199 4.567-10.199 10.199s4.566 10.199 10.199 10.199h359.012c5.633 0 10.199-4.567 10.199-10.199s-4.566-10.199-10.199-10.199zM435.506 275.99H76.494c-5.633 0-10.199 4.567-10.199 10.199s4.566 10.199 10.199 10.199h359.012c5.633 0 10.199-4.567 10.199-10.199s-4.566-10.199-10.199-10.199zM435.506 349.424h-5.1c-5.633 0-10.199 4.567-10.199 10.199s4.566 10.199 10.199 10.199h5.1c5.633 0 10.199-4.567 10.199-10.199s-4.566-10.199-10.199-10.199zM390.63 349.424H76.494c-5.633 0-10.199 4.567-10.199 10.199s4.566 10.199 10.199 10.199H390.63c5.633 0 10.199-4.567 10.199-10.199s-4.566-10.199-10.199-10.199z"/>
    </symbol>
    <symbol id="education-icon" viewBox="0 0 31.991 31.992">
      <g><path d="M6.952 17.189v5.014S11.76 20.2 16.023 20.2s9.072 2.003 9.072 2.003v-5.084s-4.587-2.426-9.143-2.426c-4.554-.002-9 2.496-9 2.496z"/><path d="M30.188 15.995l1.804-.97-1.804-.999v-.474s.508-2.576-2.379-1.229c-.147.08-.226.161-.258.24L15.645 5.96 0 14.914l5.908 2.684v-.871s4.957-2.783 10.038-2.783c5.08 0 10.193 2.705 10.193 2.705v1.521l3.262-1.752v7.093h-1.086v2.521l1.444-.998 1.603.998V23.51h-1.174v-7.515zm-.788-2.881v.475l-.952-.528c.347-.23.952-.549.952.053zm-.322 2.782a.764.764 0 1 1-.001-1.527.764.764 0 0 1 .001 1.527z"/></g>
    </symbol>
    <symbol id="fb-icon" viewBox="0 0 49.652 49.652">
      <path d="M24.826 0C11.137 0 0 11.137 0 24.826c0 13.688 11.137 24.826 24.826 24.826 13.688 0 24.826-11.138 24.826-24.826C49.652 11.137 38.516 0 24.826 0zM31 25.7h-4.039v14.396h-5.985V25.7h-2.845v-5.088h2.845v-3.291c0-2.357 1.12-6.04 6.04-6.04l4.435.017v4.939h-3.219c-.524 0-1.269.262-1.269 1.386v2.99h4.56L31 25.7z"/>
    </symbol>
    <symbol id="file-icon" viewBox="0 0 60 60">
      <g><path d="M42.5 22h-25a1 1 0 1 0 0 2h25a1 1 0 1 0 0-2zM17.5 16h10a1 1 0 1 0 0-2h-10a1 1 0 1 0 0 2zM42.5 30h-25a1 1 0 1 0 0 2h25a1 1 0 1 0 0-2zM42.5 38h-25a1 1 0 1 0 0 2h25a1 1 0 1 0 0-2zM42.5 46h-25a1 1 0 1 0 0 2h25a1 1 0 1 0 0-2z"/><path d="M38.914 0H6.5v60h47V14.586L38.914 0zm.586 3.414L50.086 14H39.5V3.414zM8.5 58V2h29v14h14v42h-43z"/></g>
    </symbol>
    <symbol id="github-icon" viewBox="0 0 438.549 438.549">
      <path d="M409.132 114.573c-19.608-33.596-46.205-60.194-79.798-79.8-33.598-19.607-70.277-29.408-110.063-29.408-39.781 0-76.472 9.804-110.063 29.408-33.596 19.605-60.192 46.204-79.8 79.8C9.803 148.168 0 184.854 0 224.63c0 47.78 13.94 90.745 41.827 128.906 27.884 38.164 63.906 64.572 108.063 79.227 5.14.954 8.945.283 11.419-1.996 2.475-2.282 3.711-5.14 3.711-8.562 0-.571-.049-5.708-.144-15.417a2549.81 2549.81 0 0 1-.144-25.406l-6.567 1.136c-4.187.767-9.469 1.092-15.846 1-6.374-.089-12.991-.757-19.842-1.999-6.854-1.231-13.229-4.086-19.13-8.559-5.898-4.473-10.085-10.328-12.56-17.556l-2.855-6.57c-1.903-4.374-4.899-9.233-8.992-14.559-4.093-5.331-8.232-8.945-12.419-10.848l-1.999-1.431c-1.332-.951-2.568-2.098-3.711-3.429-1.142-1.331-1.997-2.663-2.568-3.997-.572-1.335-.098-2.43 1.427-3.289 1.525-.859 4.281-1.276 8.28-1.276l5.708.853c3.807.763 8.516 3.042 14.133 6.851 5.614 3.806 10.229 8.754 13.846 14.842 4.38 7.806 9.657 13.754 15.846 17.847 6.184 4.093 12.419 6.136 18.699 6.136 6.28 0 11.704-.476 16.274-1.423 4.565-.952 8.848-2.383 12.847-4.285 1.713-12.758 6.377-22.559 13.988-29.41-10.848-1.14-20.601-2.857-29.264-5.14-8.658-2.286-17.605-5.996-26.835-11.14-9.235-5.137-16.896-11.516-22.985-19.126-6.09-7.614-11.088-17.61-14.987-29.979-3.901-12.374-5.852-26.648-5.852-42.826 0-23.035 7.52-42.637 22.557-58.817-7.044-17.318-6.379-36.732 1.997-58.24 5.52-1.715 13.706-.428 24.554 3.853 10.85 4.283 18.794 7.952 23.84 10.994 5.046 3.041 9.089 5.618 12.135 7.708 17.705-4.947 35.976-7.421 54.818-7.421s37.117 2.474 54.823 7.421l10.849-6.849c7.419-4.57 16.18-8.758 26.262-12.565 10.088-3.805 17.802-4.853 23.134-3.138 8.562 21.509 9.325 40.922 2.279 58.24 15.036 16.18 22.559 35.787 22.559 58.817 0 16.178-1.958 30.497-5.853 42.966-3.9 12.471-8.941 22.457-15.125 29.979-6.191 7.521-13.901 13.85-23.131 18.986-9.232 5.14-18.182 8.85-26.84 11.136-8.662 2.286-18.415 4.004-29.263 5.146 9.894 8.562 14.842 22.077 14.842 40.539v60.237c0 3.422 1.19 6.279 3.572 8.562 2.379 2.279 6.136 2.95 11.276 1.995 44.163-14.653 80.185-41.062 108.068-79.226 27.88-38.161 41.825-81.126 41.825-128.906-.01-39.771-9.818-76.454-29.414-110.049z"/>
    </symbol>
    <symbol id="gmail-icon" viewBox="0 0 250.57 250.57">
      <path d="M23.032 220.285h204.506c12.7 0 23.032-10.333 23.032-23.034V53.318c0-12.701-10.332-23.033-23.032-23.033H23.032C10.332 30.285 0 40.618 0 53.318v143.933c0 12.701 10.332 23.034 23.032 23.034zM15 53.318a8.036 8.036 0 0 1 8.032-8.033h204.506a8.035 8.035 0 0 1 8.032 8.033v143.933c0 4.437-3.6 8.034-8.032 8.034H23.032A8.036 8.036 0 0 1 15 197.251V53.318zm29.738 141.359h-15V56.529l93.674 60.815c1.102.715 2.643.716 3.748-.002l93.673-60.813v138.148h-15V84.151l-70.507 45.774c-2.992 1.941-6.464 2.966-10.041 2.966s-7.049-1.025-10.039-2.965L44.738 84.151v110.526z"/>
    </symbol>
    <symbol id="menu-close-icon" viewBox="0 0 212.982 212.982">
      <path d="M131.804 106.491l75.936-75.936c6.99-6.99 6.99-18.323 0-25.312-6.99-6.99-18.322-6.99-25.312 0L106.491 81.18 30.554 5.242c-6.99-6.99-18.322-6.99-25.312 0-6.989 6.99-6.989 18.323 0 25.312l75.937 75.936-75.937 75.937c-6.989 6.99-6.989 18.323 0 25.312 6.99 6.99 18.322 6.99 25.312 0l75.937-75.937 75.937 75.937c6.989 6.99 18.322 6.99 25.312 0 6.99-6.99 6.99-18.322 0-25.312l-75.936-75.936z" fill-rule="evenodd" clip-rule="evenodd"/>
    </symbol>
    <symbol id="menu-hamburger-icon" viewBox="0 0 73.168 73.168">
      <path d="M4.242 14.425h64.684c2.344 0 4.242-1.933 4.242-4.324 0-2.385-1.898-4.325-4.242-4.325H4.242C1.898 5.776 0 7.716 0 10.101c0 2.392 1.898 4.324 4.242 4.324zm64.684 17.834H4.242C1.898 32.259 0 34.2 0 36.584c0 2.393 1.898 4.325 4.242 4.325h64.684c2.344 0 4.242-1.933 4.242-4.325 0-2.384-1.898-4.325-4.242-4.325zm0 26.483H4.242C1.898 58.742 0 60.683 0 63.067c0 2.393 1.898 4.325 4.242 4.325h64.684c2.344 0 4.242-1.935 4.242-4.325 0-2.384-1.898-4.325-4.242-4.325z"/>
    </symbol>
    <symbol id="new-file-icon" viewBox="0 0 32 32">
      <g><path d="M24 14.059V5.584L18.414 0H0v32h24v-.059c4.499-.5 7.998-4.31 8-8.941a8.998 8.998 0 0 0-8-8.941zM17.998 2.413L21.586 6h-3.588V2.413zM2 30V1.998h14v6.001h6v6.06A8.957 8.957 0 0 0 17.348 16H4v2h11.517a8.952 8.952 0 0 0-.994 2H4v2h10.059a8.974 8.974 0 0 0 3.291 8H2zm21-.117A6.898 6.898 0 0 1 16.115 23 6.898 6.898 0 0 1 23 16.115 6.898 6.898 0 0 1 29.883 23 6.898 6.898 0 0 1 23 29.883z"/><path d="M4 12h16v2H4zM24.002 22v-4H22v4h-4v2h4v4h2.002v-4H28v-2z"/></g>
    </symbol>
    <symbol id="phone-icon" viewBox="0 0 463.009 463.009">
      <path d="M462.692 381.085c-1.472-11.126-7.895-20.719-17.62-26.318L330.846 289c-13.99-8.055-31.738-5.71-43.157 5.708l-22.499 22.499c-5.987 5.988-15.459 6.518-22.028 1.231-17.737-14.272-35.201-29.979-51.906-46.685-16.705-16.705-32.412-34.168-46.685-51.906-5.287-6.57-4.758-16.041 1.231-22.029l22.498-22.499c11.418-11.417 13.766-29.163 5.709-43.156L108.242 17.937C102.642 8.211 93.05 1.789 81.924.317c-11.127-1.475-22.06 2.236-29.996 10.172L18.027 44.391c-23.661 23.662-24.041 66.944-1.07 121.875 22.088 52.818 63.308 110.962 116.065 163.721 52.759 52.758 110.903 93.978 163.722 116.066 27.039 11.307 51.253 16.957 71.697 16.956 21.088 0 38.163-6.013 50.178-18.027l33.901-33.902c7.935-7.936 11.643-18.869 10.172-29.995zm-139.33-79.086l114.226 65.767c5.649 3.252 9.379 8.824 10.233 15.286.718 5.423-.691 10.763-3.885 15.066L292.131 311.48l6.165-6.165c6.631-6.631 16.941-7.994 25.066-3.316zM79.956 15.188c6.463.855 12.034 4.585 15.286 10.234l65.767 114.226c4.68 8.127 3.316 18.435-3.315 25.065l-5.663 5.663L64.917 19.073c3.561-2.637 7.82-4.069 12.26-4.069.921 0 1.85.061 2.779.184zm328.055 419.187c-18.798 18.798-57.244 18.01-105.48-2.162-51.06-21.352-107.491-61.424-158.901-112.833-51.41-51.41-91.482-107.842-112.834-158.901-20.173-48.237-20.96-86.683-2.162-105.482l25.167-25.168 87.245 151.532-5.851 5.851c-11.415 11.416-12.409 29.488-2.311 42.04 14.609 18.156 30.68 36.024 47.764 53.108 17.086 17.085 34.954 33.156 53.109 47.765 12.55 10.098 30.622 9.105 42.04-2.312l5.338-5.338 152.016 86.759-25.14 25.141z"/>
    </symbol>
    <symbol id="skype-icon" viewBox="0 0 430.123 430.123">
      <path d="M412.164 246.198a199.284 199.284 0 0 0 2.45-31.148c0-110.215-89.342-199.555-199.56-199.555-10.576 0-20.995.871-31.141 2.458C165.534 6.581 143.842 0 120.595 0 53.996 0 .005 53.984.005 120.59c0 23.242 6.585 44.916 17.952 63.332-1.573 10.172-2.439 20.528-2.439 31.132 0 110.223 89.34 199.536 199.532 199.536 10.585 0 21.007-.816 31.152-2.417 18.398 11.35 40.072 17.949 63.314 17.949 66.617 0 120.602-53.998 120.602-120.602.005-23.251-6.576-44.92-17.954-63.322zM309.801 305.81c-8.442 12.153-20.843 21.65-37.047 28.479-16.237 6.847-35.428 10.254-57.59 10.254-26.562 0-48.554-4.648-65.913-14.034-12.305-6.721-22.313-15.737-30.007-26.98-7.71-11.252-11.619-22.271-11.619-33.015 0-6.338 2.417-11.85 7.122-16.344 4.754-4.527 10.877-6.796 18.104-6.796 5.92 0 11.005 1.783 15.145 5.316 4.109 3.532 7.556 8.667 10.375 15.443 3.379 7.85 7.049 14.412 10.954 19.648 3.881 5.171 9.343 9.488 16.417 12.867 6.996 3.388 16.307 5.082 27.958 5.082 15.945 0 28.831-3.449 38.693-10.253 9.912-6.866 14.673-15.22 14.673-25.314 0-8.051-2.567-14.445-7.831-19.43-5.312-5.05-12.172-8.896-20.685-11.579-8.546-2.711-20.02-5.586-34.399-8.615-19.308-4.214-35.456-9.119-48.533-14.752-13.094-5.654-23.522-13.383-31.251-23.146-7.745-9.859-11.607-22.113-11.607-36.627 0-13.84 4.077-26.217 12.239-36.989 8.158-10.802 19.961-19.07 35.351-24.829 15.336-5.757 33.391-8.637 54.075-8.637 16.541 0 30.849 1.914 42.96 5.722 12.078 3.836 22.146 8.898 30.196 15.25 7.999 6.338 13.885 13.023 17.613 20.038 3.725 7.036 5.601 13.908 5.601 20.614 0 6.235-2.417 11.89-7.127 16.846-4.709 4.963-10.733 7.493-17.768 7.47-6.342 0-11.317-1.463-14.767-4.56-3.36-2.996-6.889-7.766-10.706-14.414-4.825-9.276-10.604-16.503-17.324-21.672-6.543-5.073-17.338-7.714-32.359-7.682-13.898 0-25.018 2.84-33.411 8.394-8.445 5.643-12.482 12.19-12.501 19.861.014 4.807 1.396 8.86 4.177 12.326 2.824 3.498 6.753 6.529 11.803 9.084a81.825 81.825 0 0 0 15.355 6.046c5.225 1.481 13.894 3.622 25.944 6.457 15.112 3.257 28.819 6.896 41.136 10.862 12.293 3.986 22.784 8.793 31.451 14.52 8.736 5.71 15.564 12.99 20.438 21.783 4.909 8.807 7.354 19.564 7.354 32.222.019 15.242-4.227 28.95-12.689 41.084z"/>
    </symbol>
    <symbol id="vk-icon" viewBox="0 0 97.75 97.75">
      <path d="M48.875 0C21.883 0 0 21.882 0 48.875S21.883 97.75 48.875 97.75 97.75 75.868 97.75 48.875 75.867 0 48.875 0zm24.792 54.161c2.278 2.225 4.688 4.319 6.733 6.774.906 1.086 1.76 2.209 2.41 3.472.928 1.801.09 3.776-1.522 3.883l-10.013-.002c-2.586.214-4.644-.829-6.379-2.597-1.385-1.409-2.67-2.914-4.004-4.371-.545-.598-1.119-1.161-1.803-1.604-1.365-.888-2.551-.616-3.333.81-.797 1.451-.979 3.059-1.055 4.674-.109 2.361-.821 2.978-3.19 3.089-5.062.237-9.865-.531-14.329-3.083-3.938-2.251-6.986-5.428-9.642-9.025-5.172-7.012-9.133-14.708-12.692-22.625-.801-1.783-.215-2.737 1.752-2.774 3.268-.063 6.536-.055 9.804-.003 1.33.021 2.21.782 2.721 2.037 1.766 4.345 3.931 8.479 6.644 12.313.723 1.021 1.461 2.039 2.512 2.76 1.16.796 2.044.533 2.591-.762.35-.823.501-1.703.577-2.585.26-3.021.291-6.041-.159-9.05-.28-1.883-1.339-3.099-3.216-3.455-.956-.181-.816-.535-.351-1.081.807-.944 1.563-1.528 3.074-1.528l11.313-.002c1.783.35 2.183 1.15 2.425 2.946l.01 12.572c-.021.695.349 2.755 1.597 3.21 1 .33 1.66-.472 2.258-1.105 2.713-2.879 4.646-6.277 6.377-9.794.764-1.551 1.423-3.156 2.063-4.764.476-1.189 1.216-1.774 2.558-1.754l10.894.013c.321 0 .647.003.965.058 1.836.314 2.339 1.104 1.771 2.895-.894 2.814-2.631 5.158-4.329 7.508-1.82 2.516-3.761 4.944-5.563 7.471-1.656 2.31-1.525 3.473.531 5.479z"/>
    </symbol></svg>