<svg xmlns="http://www.w3.org/2000/svg" viewBox="0 0 518.6 271.9"><path d="M75 0c6.1 0 12.6 1.9 19.5 5.6 3.3 1.3 6.2 3.5 8.9 6.4 3.4 3.5 5.6 6.4 6.7 8.9h.6c26.7-8.2 42-12.2 46.1-12.2 4.3-.7 8.7-1.2 13-1.4 7.6 0 14.6 1 20.9 3.1v.3c0 .2-.4.5-1.2.8L179 9.8c-15.9 0-33.6 4.9-53.3 14.7L114 29.7v.6c1.8 6.5 2.7 12.4 2.7 17.5 0 6.3-1.4 12.8-4.1 19.5-.3 0-.8 1.2-1.4 3.6l-6.7 12.7c-2.8 4.9-8.2 11.7-16.2 20.3 3.7 2.9 6.5 8.1 8.6 15.6 4.8.2 14.5 3.4 28.9 9.4 1.5 1.1 2.2 1.7 2.2 1.9 0 .3-.3.6-.8.9-7.9-3.5-15.5-5.3-22.8-5.3-3.4.2-5.6.3-6.7.3l-.2.5v1.1c0 3.4-.5 7-1.4 10.8 12.1-.5 18.5-.8 19.1-.8 8.2 0 20.7 2 37.6 5.9 11.4 3.3 21.2 7.1 29.4 11.4 5.3 3.4 8.3 5.5 9.2 6.4v1.2c0 .3-.2.5-.6.5h-.2c-.5 0-2.7-1.3-6.7-3.9-10.5-4.8-17.5-7.3-20.9-7.3-6.1-2-17-3-32.8-3l-4.4.2c-.2 0-.3-.1-.3-.2l-1.4.2c-1.9 0-5.7.1-11.4.3l-.5.3c-.2 0-.3-.1-.3-.3-3.7.4-11.8 1-24.5 1.7-1.9 2.2-6.5 5.8-13.9 10.8-4.4 2.7-10 4.8-16.9 6.1-3.8.9-7.7 1.4-11.6 1.4-4.4-.7-6.7-1.7-6.7-2.8 0-.3.3-.5.8-.5.4 0 1.9.4 4.5 1.1h2.2c4.5 0 11.5-1.7 21.1-5 3.2-1.5 8.4-5 15.6-10.3v-.5h-.3c-3 0-5.9.2-8.6.5-.2 0-.5-.1-.8-.2-.5 0-2.4.1-5.6.2-27.3-.5-41.7-1.5-43.1-3l-.3-.6c0-.4.2-.6.6-.6h7.5c6.1 0 26.3-3 60.9-8.9.7-2.4 1.4-5.1 2-8.1V129c0-.4.1-.8.3-1.1-.2-.4-.3-.7-.3-.9-11 1.7-25.8 4.2-44.5 7.5l-15.6 1.6c-2.1-.1-4.1-.2-6.1-.2h-2c-.4 0-.8-.1-1.1-.3-.3.2-.6.3-.8.3-4-.2-9.2-1.8-15.6-4.8-3.5-1.4-5.9-3.4-7.2-6.1-1.3-2.6-2-4.3-2-5.1v-1.6c0-4.6 3-9.5 8.9-14.7 3.6-3.4 10.3-6.8 20.1-10.3 7-2 13.9-3 20.5-3 10.3 0 18.7 1.8 25.3 5.3 1.3.7 2.4 1.1 3.3 1.1 10.5-13.5 18.2-26 23.1-37.5 3.5-9.2 5.3-16.9 5.3-23.1l-.3-1.1c.2-.3.3-.8.3-1.4V33c-18.3 5.4-29.4 8.1-33.3 8.1-14.7 0-25-3.9-30.8-11.6-1.5-1.6-2.3-4.8-2.3-9.4 0-2.6 1.7-6.1 5.1-10.3C52.4 3.2 62.4 0 75 0zM3.1 118.4c0 5.7 3.4 9.7 10.3 11.9 1.9.3 4.4.5 7.5.5 10.9-.7 24.5-6.8 40.8-18.3 5.4-4.7 9.4-8.4 11.9-11.1 1.3-.8 2-1.7 2-2.8-7.9-3.7-15.8-5.6-23.9-5.6-12 0-21.9 2.1-29.7 6.2-4.1 1.2-8.9 4.5-14.5 10-2.5 2.9-3.9 6-4.4 9.2zm39.7-97.2v.5c0 2.1 1.7 4.4 5.1 7 2.5 1.7 6.9 2.5 13.3 2.5h1.1c.6 0 1.1.1 1.4.3 6.8 0 20.5-3 41.1-8.9-1.4-5-4.4-9.3-9.2-12.8-5.1-3.9-10.2-6-15.3-6.4 0-.2-2.2-.5-6.7-.8-5.9 0-12.2 1.4-19.1 4.2-6.7 3.7-10.4 7.7-11.1 11.9-.4 1.1-.6 2-.6 2.5zm11.4 105.3v.3h.5l22.6-7c4.4-.8 7.4-1.2 8.9-1.2H92l1.9.3v-.3c0-3.7-2.6-7.8-7.8-12.5h-.3c-7.1 6.3-14.9 11.9-23.6 16.6-4.4 2.6-7.1 3.8-8 3.8zm0-4.8v.3h.3c.3-.2.6-.3.8-.3v-.3H55c-.3.2-.6.3-.8.3zm2.2-1.4v.6h.3c4.1-2.2 6.6-3.7 7.3-4.5-.8 0-1.2-.3-1.2-.8h-.2c-1.7 1-3.1 2.2-4.2 3.6-.9.8-1.5 1.1-2 1.1zm1.1 8.7h.3l1.7-.3.5.3c6.1-1.4 9.3-2.2 9.7-2.5 0-1.2 3.5-2.4 10.5-3.7v-.2l-1.4-.3c-.6 0-7.5 2-20.8 6.1-.3 0-.5.2-.5.6zM70 36.2c-4.3-.2-6.5-.3-6.7-.3h-.8v.3c4.2.3 8.3.5 12.2.5h1.9c.4 0 .6.2.6.6-.2.3-.3.6-.3.8h.3c2.1-.3 5.7-1.2 11.1-2.5v-.3c0-.2-.5-.7-1.4-1.4-5.1 1.5-10.7 2.3-16.9 2.3zm-6.1 78.6h.2c4.5-2.8 9.2-6.3 14.2-10.5v-.5h-.6c-6.6 4.6-11.2 8.3-13.8 11zm12.3 33.4v.2h2.2c1.5 0 3.5-.2 6.1-.5v-.3H84c-4.7.4-7.2.6-7.8.6zm7.4-23.4H82c-.3 0-.5.2-.5.6l1.9-.3H85c.4 0 .6-.2.6-.6l-2 .3zM90 32.3h-.8c0 .4-.1.8-.3 1.1h.6c5.4-1.7 8.2-2.5 8.6-2.5v-.3H97l-7 1.7zm11.7 32.2c0 1-2.6 6-7.8 15l-3.6 5.3v.2h.6c0-1 .8-1.8 2.5-2.5 4.4-7.3 7.3-12 8.9-14.1-.9 0-1.4-.1-1.4-.3l1.1-3.4v-.2h-.3zm-10-35.6v.3h.8c2.1-.2 3.1-.6 3.1-1.1h-.3c-1.8.6-3 .8-3.6.8zM93.1 94h.3c5.1-6.2 8.9-11.8 11.4-16.7 0-.3.2-.7.6-1.1h-.4c-1.3.9-3.1 3.9-5.6 8.9-3.5 4.5-5.6 7.5-6.3 8.9zm3.3-66.2v.3h.6c4.6-1 7-1.8 7-2.3h-.3c-4.6 1.4-7 2-7.3 2zm12.2 27.3c0 1.1-1 3.1-3 5.8-1.5 3.9-2.6 7.6-3.4 11.1l-4.7 7.8v.3c5.4-6.2 8.4-11.7 9.2-16.4.7-2.3 1.5-5.1 2.2-8.3v-.2h-.3zm-7.5-25.9v.5h.3c1-.5 1.8-.8 2.2-.8v-.3l-2.5.6zm.9 119h.3c3.9 0 8.4-.3 13.6-.9v-.3H104c-1 0-1.7.4-2 1.2zm10.3-3.4h-4.5v.3c1.4 0 2.4.1 3.1.3.7-.2 1.4-.3 1.9-.3 1 .2 1.5.3 1.7.3.2 0 .3-.1.3-.3l1.4.3h11.4v-.3c-3.7-.2-6.4-.3-8.3-.3h-2.6c-.1 0-.2-.1-.2-.3-.2 0-.3.1-.3.3l-1.1-.3-1.1.3c-.2 0-.3-.1-.3-.3l-1.4.3zM110 63.1c-.1.9-.8 2.3-1.9 4.2.2.3.3.6.3.8h.8c0-.9.5-2.5 1.4-5h-.6z"/><path d="M114.1 77.1c.2 0 .4.1.4.2l1-.1.7.1c3 .2 6 1.6 8.9 4.2.9 1.3 1.5 2 1.8 2.1 1.8-1.1 3.6-1.7 5.4-1.8 0-.4 2.3-.7 6.7-.8 3 .3 5.9 1.8 8.6 4.5 1.6 1.9 2.2 4.9 1.8 9.1.1 0 .2.3.2.7-.3 3.4-2.5 7.5-6.4 12.3-2.1 2.8-3.1 4.7-3.1 5.6l-.1.2c-.1 1.2.6 2 2.1 2.3h.1c3.9.3 9.1-4.1 15.7-13.3l1-.7c.6 0 1.1.4 1.4 1l-.1.4c-.6 2-3.2 5.3-7.7 10-3.2 3.6-7 5.2-11.4 4.8-5.1-1.6-7.6-3-7.5-4-1-1.7-1.4-3.4-1.2-5.1l.2-2.2 4.1-10.1c.6-1.6 1-3.2 1.1-4.8 0-1.7-.5-3-1.5-4.1-1.7-1.7-3.8-2.7-6.4-2.9-.6.1-1.3.5-2.3 1 0 .4.1 1 .6 1.8l-.1 1.7c-.3 2.9-1.5 5.5-3.7 7.7-6.8 5-10.3 8.9-10.5 11.8-.1 0-.2.1-.2.2-.1 1.1.3 2.5 1.2 4.2 0 .2.1.5.1.7-.2.5-.7.8-1.4.7l-.7-.1c-4.1-3.8-6-7-5.8-9.7-.1-1.1-.3-1.7-.4-1.8.4-4.9 2.7-9.3 6.9-13.3 2.3-2.5 3.6-4.3 3.7-5.4.2-2.1-.9-3.7-3.1-5-1.9-.5-2.8-1-2.8-1.4l.1-.2c-.3-.3.7-.5 2.6-.5zm-1.8 20.6c.4 0 1.3-1.1 2.8-3.4 1.7-1.9 2.7-2.8 3.1-2.8 0-.1 0-.3-.1-.6l.5-2.4h-.2c-3 2.6-4.5 4.4-4.6 5.4-.1.5-.6 1.8-1.5 3.8zm8.6-11.3v.4c-.1 1.9-.8 3.5-2 4.8 0 .6-1.3 2.6-3.7 6.2h.2l4.7-4.1-.1-1.4c.7-2.4 1.1-4.3 1.2-5.8l-.3-.1zM117.1 99c.1 0 .8-.5 1.8-1.5h-.4c-.8.5-1.3 1-1.4 1.5zm26-8.7c0 .5-.7 1.3-1.9 2.5-.2.5-.6 1.4-1 2.8l-.1 1 1.7-1 .1.1c.2 0 .4.4.6 1.3-2.3 3.7-3.6 6-3.7 7 .4-.3 1.4-2.2 3.1-5.5l.4-.1h.4v1.2h.2c.9-2.1 1.4-3.4 1.5-3.9l-1 .9c-.3-.2-.5-.6-.4-1.2l.3-2.9-.1-2h-.1zm-2.2 15l.4.2 1.9-2.6.1-.2-.4-.1c-.7 0-1.4.9-2 2.7z"/><path d="M219.6 8h.4c.2 0 .4.3.6.7 0 .3-2.9 2.9-8.5 7.8-5.8 6.4-10.7 14.2-14.8 23.4-1.8 3.7-5.5 12.5-11.3 26.7-4 9.9-7.7 17.3-11 22.4h.4c7.3-3.1 14.5-5.2 21.5-6.4l1 .3.5.1 2.1-.1.8 1.2-.1.6c0 .4-2.8.9-8.3 1.5-1.5.5-2.3.8-2.3 1v.2c3.1 1 5.2 2.4 6.1 4.4 1 1.9 1.5 3.7 1.3 5.4-.3 3-2 6.7-5.1 11.1-2.5 3-3.8 5.5-4 7.5.3 1 .9 1.6 1.7 1.7l1.5.1c3.1-.4 6.6-3.2 10.5-8.4 2.6-4.3 4.3-6.8 5.1-7.4l.7.1c.6 0 1 .3 1.2.9v.4c-1.5 4.3-5.3 9.4-11.4 15.2-2.7 1.7-5.7 2.4-8.9 2.2-1.9-.2-4.1-2.1-6.6-5.9-.4-.9-.6-2.4-.5-4.4 0-.1 0-.2.1-.2l-.1-.9c1.2-3.3 2.5-6.5 4-9.4.3-.4.5-1 .5-1.5l.2-3.1c.2-1.9-1.2-3.2-4.2-3.8-3.5-.3-6.3.3-8.6 1.8-2.2.9-5.6 3.8-10 8.5-7.9 7.1-13.5 11.1-16.8 12.2-.9.8-1.9 1.2-2.9 1.2l-.4-.1c-.2 0-.4-.3-.7-.8v-.1c1.2-.8 4-3.7 8.4-8.7 6.7-8.5 11-15 13-19.3 3.1-6.3 7.1-15 11.8-25.9 5.3-10.9 9.6-18.7 13-23.4 3.4-5.3 8-10.6 13.9-16 .1-.5 3.5-3.4 10.2-8.6 2.4-1.5 4.1-2.6 5-3.3 0-.8.4-.9 1-.9zm-43.8 67.4c-2.5 4.9-5.4 10-8.8 15.3v.1h.2l6.3-9.8c.7-.4 1.3-.6 1.8-.6l.1.4v.1c0 .4-.5 1.6-1.5 3.4v.1l.1.1c2.1-3.4 3.2-5.5 3.4-6.4h-.2c-.2.1-.5.2-.8.1l-.7-.1c-.3 0-.4-.1-.4-.4 0-.3.2-1.1.7-2.4l-.2.1zm-5.3 4.8l.4.1c2.9-5.3 5.2-9.7 6.7-13.3.6-.3 2.1-3.6 4.5-9.7.4-.5.7-1 .7-1.5l-.8-.1c-.9.9-2.1 3.5-3.8 7.6-1.5 3.2-4.1 8.8-7.7 16.9zm7.3-2.6v.2h.2c3.1-6.9 5.1-11.9 6.2-14.9-.6.4-2 3.3-4.3 8.6-.5 1-1.2 3-2.1 6.1zm8-28.2v.4h.2c0-.3.5-1.1 1.2-2.4-.2-.1-.7.6-1.4 2zm4.1 48.7c0 .4-.8 2.6-2.3 6.4l-.1.8.1 1.9.1.1c0-.5 1.2-2.3 3.4-5.6v-.4c-.6.7-1 1.1-1.1 1.1-.2 0-.3-.3-.3-.7.4-1.8.6-3 .7-3.7h-.5zm2.5 1.3c0 .2-.3.6-.9 1.2v.2l1.2-.9.2.1.5.4h.2l.1-1-1 .1-.3-.1zM298.3 4c13.7 0 29.2 4 46.3 11.8 4 1.9 6.3 2.9 6.8 2.9 13.1-7.7 27-11.5 41.6-11.5 16.3 0 28.1 4 35.6 12 2.4 2.4 3.7 4.8 3.7 7.3v1.1c0 4.9-4.7 8.6-14.1 11.2-5.9 1.4-13.5 2.1-23 2.1l-1-.3c-.3.2-.7.3-1.1.3-11.8-1.2-23-3.6-33.5-7-3.6-1.4-6-2.2-7.1-2.4-6.1 8.5-9.2 13.4-9.2 14.7 3.9 4.2 6.5 10.2 7.8 17.8.2 1.8.3 3.1.3 4.2v1.5c0 11.7-6.5 21.9-19.4 30.7-5.4 3.5-12.1 6.1-20.1 7.8-.2.1-.9.2-1.8.2h-1.6c-1.5 4-6.8 10.5-16 19.7-4.2 4.3-8.5 8.4-13 12.3-7.9 5.9-12.2 8.9-12.9 8.9 1 1 8.9 3.4 23.6 7.1 5.3.9 13.9 1.7 25.7 2.6h3.4c14.5 0 33.6-1.6 57.3-4.7 3-.2 5.9-.3 8.6-.3l1.5-.2c.2 0 .3.1.3.2l1.3-.2c18.1 0 33.6 3.1 46.4 9.2 4.5 1.5 10.1 4.4 16.7 8.6l.3 1.3v.5h-.8c-6.7-4.6-16.4-8.2-29.1-10.8-6.1-.7-9.8-1-11.2-1h-.3c-.1 0-.2-.1-.2-.2l-.6.2h-2.9c-9.4 0-25.1 1.9-47.1 5.8-12.4 1.2-21 1.8-25.9 1.8l-.5.2c-.3-.1-.7-.2-1.1-.2h-.5c-1.3 0-2.2.1-2.9.2-1.2-.1-2.3-.2-3.4-.2h-1.8c-.1 0-.2-.1-.2-.3-.2 0-.3.1-.3.3-14.3-1.5-24.2-3.2-29.8-5-11.4-3.8-21.3-7.9-29.6-12.3-13.3 7.3-20.8 11-22.6 11l-.5-.8v-.2c0-.4 3.6-2.7 10.8-6.8 0-.2 2.6-2 7.8-5.3v-.2c-5.9-3.2-10.6-6.3-14.1-9.4v-.8c0-.3.2-.5.5-.5.5 0 4.2 2.2 11.3 6.5 2.4 1.4 4.1 2.1 5.2 2.1h.3c2.5-1.3 8.4-6.8 17.8-16.5 5.4-6.3 10.1-12.7 14.1-19.1 0-.3.6-1.2 1.8-2.9v-.3h-2.3c-5.5-.1-13.4-2.8-23.9-7.8-17.6-11.6-26.4-26.6-26.4-44.8 0-9.1 2.8-18.5 8.4-28 4.9-7.4 11.2-12.9 18.8-16.5 8.3-4.4 17.6-7 27.8-7.6zm-11.8 12.3c-.1 0-.2-.1-.2-.3-2.6 0-7.8 1.7-15.5 5-5.9 2.9-11.4 7.2-16.6 12.9-5.6 7.6-8.3 14.6-8.3 20.9l.3 1.2c-.2 1-.3 1.7-.3 2.1 0 11.5 5.3 22.7 16 33.5 7 6.3 14.3 10.4 21.8 12.3 5.3 1.6 9.4 2.3 12.3 2.3h1.3c2.7-3.1 8.6-14.3 17.8-33.8 2.2-4.1 6.3-12.5 12.3-24.9.2 0 1.8-2.5 4.7-7.6.5-.1.8-.7.8-1.5-6.7-5.1-14.5-7.6-23.3-7.6-9.2 0-17.8 2.4-25.7 7.3-4.1 3.9-6.6 6.9-7.5 8.9-.6.7-2 3.6-4.2 8.6-.5 2.1-1 3.1-1.3 3.1h-.9c-.3 0-.5-.2-.5-.5v-.6c.4-4.2 2.3-9 5.7-14.4 4.6-5.4 9.1-9 13.4-10.8 7.5-3 14.6-4.5 21.2-4.5 9 0 17.1 2.8 24.4 8.4l7.6-9.7c-13.6-6-22.5-8.9-26.7-8.9 0-.4-2-.8-6-1.3 0-.1-.1-.2-.3-.2-.2 0-.3.1-.3.2-3.1-.7-7.9-1-14.4-1h-2.9c-1.4.4-3 .6-4.7.9zm2.6-6.5l.3.5c0 .2-2.1.9-6.1 2.1l-4.7 2.6-1.6.5v.3h.3c5.2-1.8 11-3 17.3-3.7.2 0 .3.1.3.2 1.6-.3 3-.5 4.2-.5v.3c0-.2 1-.3 2.9-.3v-.2c-4.4 0-7.2-.5-8.1-1.6.3-.1.6-.2.8-.2v-.6c-.3 0-.5-.1-.5-.2-2.1.3-3.8.5-5.1.8zm85.4 125.9c15 0 28.8 2.9 41.2 8.6l10.7 4.5.3 1.3-.5.2c-13.4-4.5-23.3-6.8-29.6-6.8h-10.8c-2.9 0-18.2 1.6-45.8 4.8-4.1.3-7.6.5-10.5.5h-9.9c-11.7 0-23.3-1.7-34.9-5v-1c0-.3.2-.5.5-.5 2.2.5 7.7 1.1 16.6 1.8 10.4 0 28.6-2.3 54.7-6.8 4.3-.7 10.3-1.2 18-1.6zm-86.2-128V8l2.6-.3h4.2c.3 0 .6.3 1 1 1.8-.1 3.1-.2 4-.2 2.2 0 4.7.1 7.3.2h.5v-.2c-2.1 0-3.8-.6-5.2-1.8-1.5-.2-2.8-.3-4-.3h-1l-9.4 1.3zm15.3 6v.3c.9 0 4.3.4 10.2 1.3h.5V15c-3.8-.9-6.8-1.3-9.2-1.3h-1.5zm37.9 34.9c-12.2 23.8-21.1 40.7-26.7 50.5l-4.2 6.5v.5c11.6-2.5 20.3-6.7 25.9-12.5 5.1-4.5 8.1-8.1 8.9-10.8 2.2-3.2 3.4-8 3.4-14.4 0-7.2-2.3-13.8-7-19.8h-.3zm-6.8 115.9l-1.8-.5h-4.5l.3.5v.6c0 .3-.2.5-.5.5H325c-3.6 0-7.9-.3-12.8-.8 0 1 6 1.5 18 1.5 16.1 0 28.3-.8 36.7-2.3v-.2h-1.1c-2.1 0-9.3.6-21.7 1.8h-.5l-1.3-.3v-.5c13.5-2.2 24.6-3.4 33.3-3.4v-.3h-3.1c-12.9.9-25.5 2-37.8 3.4zM315.3 87c2-2.6 4.9-8.2 8.9-16.8V70c-5.6 9-8.5 14.6-8.9 17zm2.4-9.4c3.8-6.1 5.7-9.9 5.7-11.6-.3.3-2.2 4.1-5.7 11.6zm.7-5.7c.2 0 .6-.5 1.1-1.6V70c-.4 0-.7.6-1.1 1.9zm1.3-3.2c0 .1-.1.4-.2 1 .3 0 .5-.2.5-.7v-.3h-.3zm4.2-8.3l-3.7 7.3v.5h.6c0-.8.9-2.2 2.6-4.2h.5v.5c.4 0 .9-1.2 1.6-3.7-.6.1-1.1-.1-1.6-.4zm-1-45.1c0 .3 1 .7 2.9 1l.3-.5c-.8 0-1.8-.2-3.2-.5zm12.3 39.3c-5.7 10.1-9.4 17.3-11 21.8.2 0 4-7.3 11.5-21.8h-.5zm-11 107v.3c2.9.1 5.1.2 6.5.2h5.5c.7 0 1.7-.1 2.9-.2.7.1 1 .3 1 .5 3.4-.5 5.6-.8 6.8-.8l-1-1c-11.3.7-18.6 1-21.7 1zM332 55.1h-.2l-.5-.2.7-1.6V53h-.5c0 .4-.9 2-2.6 4.9 0 1.2-.5 2.8-1.5 4.8v.5c1.4 0 3.9-3.8 7.6-11.5-1.5 2.2-2.5 3.3-3 3.4zm12.4-23.3c-5.6 6.6-10.1 13-13.6 19.1v.2l5-7 9.2-11.8v-.2l-.6-.3zm-10 9.1c0 .2-.1.5-.2.8v.3h.2c0-.2.2-.6.6-1h-.6zm.8-.5h.3c0-.1.3-.7 1-1.6v-.5c-.4 0-.8.7-1.3 2.1zm1.8-3.1v.5h.5c0-.4.3-.9.8-1.5v-.5c-.1-.1-.6.5-1.3 1.5zm.3 107.6v.3h1.3c3.1 0 6-.3 8.9-1v-.3c-1.1.1-4.5.5-10.2 1zm17.5-1.1c0-.3-.2-.5-.7-.5-1.3 0-3.2.2-5.8.5.3.4.5.9.5 1.3 6.4-.9 14.8-1.8 25.1-2.9v-.2h-.2c-2.9 0-9.2.6-18.9 1.8zm.8 15.8v.2c5.5-.3 9.7-.9 12.6-1.5v-.3h-1.1c-2.3.2-6.1.7-11.5 1.6zM360.3 24c18.4 8 34.6 12 48.7 12 5.3 0 11-1 17.1-3.1.8-.4 2.1-2.1 3.9-5.2v-1.1c0-4.2-5.2-8.8-15.7-13.8-4.3-1.8-9.9-2.6-16.8-2.6h-2.3c-12 0-23.6 4.5-34.9 13.4v.4zm6.8 114.6v-.3l-.5.3h-1.5c0 .8-.5 1.2-1.6 1.2v1.1c.9 0 3-.2 6.3-.5v-.3c-.1 0-.9-.2-2.3-.5v-.5c1.4-.3 2.9-.5 4.5-.5h3.1v-.6h-.3c-.5 0-.8.1-.8.3-.2 0-.4-.1-.7-.3-3.4.3-5.4.5-6.2.6zm1.3 19.2v.2h1v-.2h-1z"/><path d="M367.4 81.2l.7.2.7.1c3.7.4 7 1.6 9.8 3.7.4 0 1.3.6 2.6 1.8 1.5-2.5 2.7-3.7 3.4-3.6.4.5.7 1 .7 1.5 0 .3-.8 1.7-2.2 4.1v.1c.9 1.4 1.4 4.2 1.5 8.4-.4 4.2-2.3 6.9-5.7 8-.8.1-1.4.2-2 .2l-1.5-.1c-.4 0-1.1 2.2-1.9 6.7.5 2 1.2 3.1 2.3 3.2 2.3.2 4.7-1.3 7.3-4.5 2.7-2.9 5.3-6.1 7.7-9.6h.1c.7.5 1.1 1.1 1 1.7-.2 1.8-2.7 5.5-7.6 11.1-.2 0-1.5 1-3.9 3-1.4.6-2.7.9-3.8.8l-1.8-.1c-.1 0-.1 0-.1-.1l-.3.1c-2.2-.2-3.5-1.8-3.8-4.8l.1-1.4c0-1 .2-2.2.6-3.4l-.3-.1c-3.3 2.3-5.6 3.7-6.8 4.1 0 .7-2.9 1.6-8.5 2.6-1-.1-1.6-.1-2 0-6.2-.5-10.1-3.4-11.8-8.5-.3-1.4-.5-3.2-.6-5.6.8-8.7 6.8-15.1 18.2-19 3.1-.3 5.5-.5 7-.4h.1c.5 0 .7-.1.8-.2zm-20.8 15.9l-1.5-.4-.1 1.8c.5 2.1.8 3.1 1 3.1.8-2.9 1.4-4.8 1.9-5.5l.1-.2c-.2 0-.6.4-1.4 1.2zm.4 7.1v.4c0 .1.1.3.4.6h.1c-.1-.6-.3-1-.5-1zm3.1-7.8c-.6 1.7-.9 2.5-1 2.6.1.5.1 1.1 0 1.8h.2c.1-1.6.5-3 1.1-4v-.2l-.3-.2zm1.7 4.7c-.3 3.8 1 6.5 4 8.3l1 .2s.1 0 .1-.1l.9.2.4.1c.5 0 1.9-.2 4.2-.8l1 .3c2.3-1 5.1-2.9 8.4-5.8-1.9-2-3.1-4.5-3.6-7.8l.1-.6c.1-1.6.9-2.7 2.1-3.5h.3c.2 0 .4.3.6.9 0 .5-.4 1.6-1 3.2.4 2.6 1.5 4.5 3.1 5.6l.7.1c2.4-5.4 4.3-9.2 5.7-11.6.1-1.1-1.9-2.4-5.9-4-6-.5-10.9 1-14.8 4.6-3.1 2.2-5.2 5.1-6.4 8.5l-.9 2.2zm29.8-9.2c-2.1 3.8-3.8 7.2-5 10.4h.2c2.5.2 4.4-1.1 5.5-4.2l.1-.2-.1-1.2.2-.4c-.2-2.6-.5-4-.9-4.4z"/><path d="M451.5 8.5c.5.2.8.5.8.7l-.1.7c-3.4 2.3-6.3 4.5-8.8 6.5-4.2 4.6-7.6 9.7-10.3 15.2-3.9 8.3-7.1 15.8-9.5 22.5-1.5 3.9-2.5 6.5-2.9 8l2.2.1c.3 0 .5.1.7.2.1 0 .2-.1.2-.2 5.3.7 10.5 1.1 15.7 1.4l7.2.4c.4 0 .9 0 1.6.2.1 0 .1 0 .1-.1 0 0 .8.1 2.3.2 2.4.2 6.7.6 12.8 1.1.6.2.9.5 1 .7l-.1 1.2c0 .6-1.1.8-3.4.7h-.1c-.5 0-1-.1-1.5-.3l-.7.2c-4.3-.6-8-1-11.1-1.2l-3.7-.1c-.2 0-.4-.1-.6-.3-.2 0-.3.1-.3.2l-15.5-1.4-.4-.1-.4.1c-2-.2-3.5-.4-4.6-.4l-1.8-.1-.9-.2c-.8 2.6-2.9 7.1-6.1 13.5-2.8 5.5-6.1 10.7-9.7 15.7-3.9 8.3-6 14-6.2 17.3v.9c.1.5.6 1.1 1.3 1.5 3.3.1 9.4-6.4 18.2-19.6h.4c1.2 0 1.9.5 1.9 1.2-1.9 4.1-5.8 9.4-11.8 16.2-.2 0-.7.5-1.6 1.5-2.2 1.9-4 3-5.3 3.4-3.6-.1-5.4-.8-5.3-1.8-.4 0-.7-1.2-1-3.6 1.1-5 2.3-8.4 3.4-10.3v-.3h-.1c0 .1-1.6 1.5-4.5 4.1-5.6 4.5-10.1 7.4-13.6 8.8l-2.7 2h-.6c-.1 0-.2-.1-.1-.2l-.4.2c-.5-.2-.7-.4-.7-.6v-.3c.9-.9 2.7-2.4 5.4-4.4 3.5-3 6.1-5.9 7.8-8.8 2.3-3 4.9-7.3 7.8-12.8 2.9-5.7 5.7-11.7 8.3-18.1.3-.4 1.2-2.5 2.6-6.3l-2.3-.1c-2.1 0-3.7-.3-4.8-.8-.1 0-.1.1-.1.2-3.8-.2-8-1.4-12.6-3.5l-1.9-1.4c-1.6-1.6-2.7-4.2-3.1-7.8V50c0-.2 0-.3.1-.2l-.1-.4c0-.1 0-.1.1-.1 0-.1 0-.2-.1-.2.1-3.2 1.7-5.8 4.7-7.7 2-.9 4.3-1.4 6.9-1.4 2.5.1 5.4 1.2 8.5 3.3.9.9 1.3 2.1 1.2 3.5 0 .2-.2.3-.4.3h-.4c-1.7-1.8-4.2-3.1-7.5-4h-.9c-4.4-.2-7.4 1.1-9 4 0 .2-.2.7-.5 1.4-.1 2.7.7 5.2 2.3 7.3.9 2.1 8 3.8 21.3 5.2.9-1.5 2.3-4.5 4.2-9.1 2.6-5.2 5.3-10.2 8.1-15 3.3-5.3 7.4-10.4 12.3-15.3 4.5-4.3 8.1-7.3 10.7-8.8 3.6-2.4 6.1-3.8 8-4.3zm-49.4 78.8l.1 1h.4c0-.1 1.1-2.1 3.4-5.7 1.2-2.6 1.8-3.9 1.8-4h-.4c-.5 0-1.5 1.7-3.1 5.2-.3-.1-1 1.1-2.2 3.5zm13.2-20.4c-1.7 2.9-3.1 5.6-4.1 8.1-1 .6-1.8 1.4-2.4 2.3v.2c.3 0 .7.2 1.2.6.7-.8 2.5-4.4 5.5-11V67l-.2-.1zm-5.4-2.3c0 .2-.3.7-.8 1.6v.1h.2c0-.3.2-.8.8-1.5l-.1-.1-.1-.1zm.8-1.8c0 .1-.2.6-.6 1.5l-.1.1h.2c0-.2.2-.7.6-1.4v-.2h-.1zm-.6 6.9c.3.1.5.5.4 1.1l-.4.5v.1c.7-.8 1.6-2.8 2.9-5.8l-.4-.1h-.4c-.4.4-1.1 1.8-2.1 4.2zM422.9 45l-4 8.3v.1h.1l4.1-8.1V45h-.2z"/><path d="M475.3 8.5c.5.2.8.5.8.7l-.1.8c-3.4 2.3-6.3 4.5-8.8 6.5-4.2 4.6-7.6 9.7-10.3 15.2-3.9 8.3-7.1 15.8-9.5 22.5-1.5 3.9-2.5 6.5-2.9 8l2.2.1c.3 0 .5.1.7.2.1 0 .2-.1.2-.2 5.3.7 10.5 1.1 15.7 1.4l7.2.4c.4 0 .9 0 1.6.2.1 0 .1 0 .1-.1 0 0 .8.1 2.3.2 2.4.2 6.7.6 12.8 1.1.6.2.9.5 1 .7l-.1 1.2c0 .6-1.1.8-3.4.7h-.1c-.5 0-1-.1-1.5-.3l-.7.2c-4.3-.6-8-1-11.1-1.2l-3.7-.1c-.2 0-.4-.1-.6-.3-.2 0-.3.1-.3.2l-15.5-1.4-.4-.1-.4.1c-2-.2-3.5-.4-4.6-.4l-1.8-.1-.9-.2c-.8 2.6-2.9 7.1-6.1 13.5-2.8 5.5-6.1 10.7-9.7 15.7-3.9 8.3-6 14-6.2 17.3v.9c.1.5.6 1.1 1.3 1.5 3.3.1 9.4-6.4 18.2-19.6h.4c1.2 0 1.9.5 1.9 1.2-1.9 4.1-5.8 9.4-11.8 16.2-.2 0-.7.5-1.6 1.5-2.2 1.9-4 3-5.3 3.4-3.6-.1-5.4-.8-5.3-1.8-.4 0-.7-1.2-1-3.6 1.1-5 2.3-8.4 3.4-10.3v-.4h-.1c0 .1-1.6 1.5-4.5 4.1-5.6 4.5-10.1 7.4-13.6 8.8l-2.7 2h-.5c-.1 0-.2-.1-.1-.2l-.4.2c-.5-.2-.7-.4-.7-.6v-.3c.9-.9 2.7-2.4 5.4-4.4 3.5-3 6.1-5.9 7.8-8.8 2.3-3 4.9-7.3 7.8-12.8 2.9-5.7 5.7-11.7 8.3-18.1.3-.4 1.2-2.5 2.6-6.3l-2.3-.1c-2.1 0-3.7-.3-4.8-.8-.1 0-.1.1-.1.2-3.8-.2-8-1.4-12.6-3.5L409 58c-1.6-1.6-2.7-4.2-3.1-7.8V50c0-.2 0-.3.1-.2l-.1-.4c0-.1 0-.1.1-.1 0-.1 0-.2-.1-.2.1-3.2 1.7-5.8 4.7-7.7 2-.9 4.3-1.4 6.9-1.4 2.5.1 5.4 1.2 8.5 3.3.9.9 1.3 2.1 1.2 3.5 0 .2-.2.3-.4.3h-.4c-1.7-1.8-4.2-3.1-7.5-4h-.9c-4.4-.2-7.4 1.1-9 4 0 .2-.2.7-.5 1.4-.1 2.7.7 5.2 2.3 7.3.9 2.1 8 3.8 21.3 5.2.9-1.5 2.3-4.5 4.2-9.1 2.6-5.2 5.3-10.2 8.1-15 3.3-5.3 7.4-10.4 12.3-15.3 4.5-4.3 8.1-7.3 10.7-8.8 3.5-2.4 6.1-3.8 7.9-4.3zm-49.4 78.8l.1 1h.4c0-.1 1.1-2.1 3.4-5.7 1.2-2.6 1.8-3.9 1.8-4h-.4c-.5 0-1.5 1.7-3.1 5.2-.3-.1-1 1.1-2.2 3.5zm13.3-20.4c-1.7 2.9-3.1 5.6-4.1 8.1-1 .6-1.8 1.4-2.4 2.3v.2c.3 0 .7.2 1.2.6.7-.8 2.5-4.4 5.5-11V67l-.2-.1zm-5.5-2.3c0 .2-.3.7-.8 1.6v.1h.2c0-.3.2-.8.8-1.5l-.1-.1-.1-.1zm.8-1.8c0 .1-.2.6-.6 1.5l-.1.1h.2c0-.2.2-.7.6-1.4v-.2h-.1zm-.5 6.9c.3.1.5.5.4 1.1l-.4.5v.1c.7-.8 1.6-2.8 2.9-5.8l-.4-.1h-.4c-.5.4-1.2 1.8-2.1 4.2zM446.7 45l-4 8.3v.1h.1l4.1-8.1V45h-.2z"/><path d="M458.7 80.7c1.6 0 3.2.4 5.1 1.2 4.5 2.8 6.8 7.1 6.8 12.9l-1.2 5.4c0 .2.2.4.4.4h1.8c.2 0 .5 0 .7-.1.1 0 .1 0 .1.1 2.9-.6 5-.9 6.2-.9.4.6.6.9.6 1 0 .8-2.4 1.5-7.1 2.2l-.8-.1c-.6 0-.9.1-1 .1l-.4-.1c-.2 0-.4.1-.7.1 0 0-.2 0-.4-.1-.4 0-1.2 1-2.6 3-1.6 2.1-2.5 3.1-2.7 3.1-1.5 1.5-3.5 2.8-5.9 4-3.3 1.3-6 1.9-8.3 1.9h-1.5c-3.6 0-7.1-1.5-10.5-4.5-2.1-2.6-3.1-5.5-3.1-8.6 0-3.3 1.4-6.7 4.1-10.3 3.8-3.7 6.8-5.7 9.1-6.2 0-.1 0-.1.1-.1.9.2 1.3.4 1.3.7v.1c-.3.5-1.8 1.4-4.3 2.9-2.3 3-3.5 5.7-3.5 7.9 0 3 1 5.2 3.1 6.7 2.6 1.7 5.2 2.6 7.8 2.6h1.8c3-.6 5.3-1.3 7-2.3 1.1-.7 1.7-1.3 1.7-1.6-5.4-1.5-9-3.8-10.8-7-1.1-1.6-1.7-3.7-1.7-6.2.4-2.8.9-4.2 1.5-4.2 1.4-2.6 3.8-4 7.3-4zM442.2 105v.4c2.3 1.7 3.5 3 3.5 3.7l-.3.2c-.2 0-1-.4-2.4-1.2l.5.9v.3c0 .2-.1.3-.4.3-.5 0-1.2-.4-2.2-1.1h-.3v.5l-.1.8c2.6 1.6 5 2.4 7.1 2.6 2.3 0 4.7-.4 7.2-1.1v-.3c-1.5.3-3.3.4-5.4.4h-1.2c-2 0-3.2-.5-3.8-1.4v-.1c0-.2.2-.4.5-.4 1.8.2 2.6.4 2.6.5.1 0 .1 0 .1-.1l1.2.1h.1l.8-.1v-.1c-1.6-.5-2.4-.9-2.4-1.3l.3-.1h2.4v-.2c-2.5-.3-4.4-1-5.6-1.8l-2.2-1.4zm9.6-16c0 2.1 1.3 4.6 3.8 7.5 3.5 2.4 6.4 3.6 8.7 3.6h.4c2.1-2.8 3.1-5.5 3.1-8.3 0-4-2.3-6.7-7-8.2l-2.6-.4c-2.2.4-3.7 1.1-4.3 1.9-1.4 1.4-2.1 2.7-2.1 3.9z"/><path d="M498.2 80.7c1.6 0 3.2.4 5.1 1.2 4.5 2.8 6.8 7.1 6.8 12.9l-1.2 5.4c0 .2.2.4.4.4h1.8c.2 0 .5 0 .7-.1.1 0 .1 0 .1.1 2.9-.6 5-.9 6.2-.9.4.6.6.9.6 1 0 .8-2.4 1.5-7.1 2.2l-.8-.1c-.6 0-.9.1-1 .1l-.4-.1c-.2 0-.4.1-.7.1 0 0-.2 0-.4-.1-.4 0-1.2 1-2.6 3-1.6 2.1-2.5 3.1-2.7 3.1-1.5 1.5-3.5 2.8-5.9 4-3.3 1.3-6 1.9-8.3 1.9h-1.5c-3.6 0-7.1-1.5-10.5-4.5-2.1-2.6-3.1-5.5-3.1-8.6 0-3.3 1.4-6.7 4.1-10.3 3.8-3.7 6.8-5.7 9.1-6.2 0-.1 0-.1.1-.1.9.2 1.3.4 1.3.7v.1c-.3.5-1.8 1.4-4.3 2.9-2.3 3-3.5 5.7-3.5 7.9 0 3 1 5.2 3.1 6.7 2.6 1.7 5.2 2.6 7.8 2.6h1.8c3-.6 5.3-1.3 7-2.3 1.1-.7 1.7-1.3 1.7-1.6-5.4-1.5-9-3.8-10.8-7-1.1-1.6-1.7-3.7-1.7-6.2.4-2.8.9-4.2 1.5-4.2 1.4-2.6 3.8-4 7.3-4zM481.7 105v.4c2.3 1.7 3.5 3 3.5 3.7l-.3.2c-.2 0-1-.4-2.4-1.2l.5.9v.3c0 .2-.1.3-.4.3-.5 0-1.2-.4-2.2-1.1h-.3v.5l-.1.8c2.6 1.6 5 2.4 7.1 2.6 2.3 0 4.7-.4 7.2-1.1v-.3c-1.5.3-3.3.4-5.4.4h-1.2c-2 0-3.2-.5-3.8-1.4v-.1c0-.2.2-.4.5-.4 1.8.2 2.6.4 2.6.5.1 0 .1 0 .1-.1l1.2.1h.1l.8-.1v-.1c-1.6-.5-2.4-.9-2.4-1.3l.3-.1h2.4v-.2c-2.5-.3-4.4-1-5.6-1.8l-2.2-1.4zm9.6-16c0 2.1 1.3 4.6 3.8 7.5 3.5 2.4 6.4 3.6 8.7 3.6h.4c2.1-2.8 3.1-5.5 3.1-8.3 0-4-2.3-6.7-7-8.2l-2.6-.4c-2.2.4-3.7 1.1-4.3 1.9-1.4 1.4-2.1 2.7-2.1 3.9z"/><g><path d="M186.8 213.2h-7.4v-16.3h7.4v2.6h-4.3v3.9h4v2.6h-4v4.5h4.3v2.7zM199 208.7c0 1.5-.4 2.7-1.2 3.5-.8.8-1.9 1.2-3.3 1.2s-2.6-.3-3.6-.8v-3c1.2.8 2.3 1.2 3.4 1.2.6 0 1-.2 1.3-.5.3-.3.4-.8.4-1.3s-.2-1-.5-1.5c-.4-.5-.9-1-1.7-1.5-.7-.5-1.2-.9-1.6-1.4-.4-.4-.6-.9-.8-1.5-.2-.6-.3-1.2-.3-1.9 0-1.4.4-2.5 1.2-3.3.8-.8 1.8-1.2 3.1-1.2s2.5.4 3.6 1.1l-1 2.4c-.4-.2-.7-.4-1.1-.6s-.8-.2-1.3-.2-.9.2-1.1.5-.4.8-.4 1.3c0 .6.2 1 .5 1.4s.9.9 1.7 1.4c1.1.7 1.8 1.4 2.2 2.2.3.7.5 1.5.5 2.5zM208.3 213.2h-3v-13.7h-3.1v-2.7h9.3v2.7h-3.1v13.7zM215.3 211.7c0-.6.2-1 .5-1.4.3-.3.8-.5 1.4-.5s1.1.2 1.4.5.5.8.5 1.4c0 .6-.2 1-.5 1.4-.3.3-.8.5-1.4.5-.6 0-1.1-.2-1.4-.5s-.5-.9-.5-1.4zM230.6 213.2h-3v-9.6c0-1 .1-2.2.2-3.6-.1.1-.2.3-.6.7-.3.4-1 1.1-1.9 2l-1.7-1.9 4.4-4h2.7v16.4zM245.1 204c0 6.3-2.1 9.4-6.3 9.4-.7 0-1.3-.1-1.7-.2v-2.6c.5.2 1 .2 1.4.2 1.2 0 2.2-.4 2.8-1.3.6-.9 1-2.2 1.1-4.1h-.1c-.2.6-.6 1-1 1.4-.4.3-1 .5-1.6.5-1.1 0-2-.5-2.6-1.4-.6-.9-.9-2.2-.9-3.7 0-1.7.4-3.1 1.2-4.1s1.9-1.5 3.2-1.5c1.5 0 2.6.6 3.4 1.9.7 1.3 1.1 3.1 1.1 5.5zm-4.5-4.8c-.4 0-.8.2-1.1.7-.3.5-.4 1.2-.4 2.3 0 .9.1 1.5.3 2s.6.7 1.1.7c.4 0 .8-.2 1.1-.7.3-.5.5-1 .5-1.7 0-1-.1-1.8-.4-2.4-.3-.6-.7-.9-1.1-.9zM250.3 213.2l4.6-13.6h-5.7v-2.7h8.8v2.1l-4.5 14.3h-3.2zM270.9 205c0 3-.4 5.1-1.1 6.4s-1.9 2-3.4 2c-1.6 0-2.7-.7-3.4-2-.7-1.3-1-3.5-1-6.4 0-3 .4-5.1 1.1-6.4.7-1.3 1.9-2 3.4-2 1.6 0 2.7.7 3.4 2 .7 1.3 1 3.4 1 6.4zm-5.9 0c0 2.3.1 3.8.3 4.6.2.8.6 1.2 1.1 1.2.4 0 .7-.2.9-.5.2-.3.4-.9.4-1.7s.1-2 .1-3.6c0-2.3-.1-3.8-.3-4.6-.2-.8-.6-1.2-1.1-1.2-.6 0-.9.4-1.1 1.2-.2.8-.3 2.4-.3 4.6zM293.5 196.8v10.6c0 1.9-.4 3.4-1.3 4.5-.9 1-2.2 1.5-3.8 1.5-1.6 0-2.9-.5-3.7-1.5s-1.3-2.5-1.3-4.5v-10.5h3v10.8c0 2.1.7 3.1 2.1 3.1.6 0 1.1-.3 1.5-.8.3-.5.5-1.3.5-2.3v-10.8h3zM298.4 211.7c0-.6.2-1 .5-1.4.3-.3.8-.5 1.4-.5s1.1.2 1.4.5c.3.3.5.8.5 1.4 0 .6-.2 1-.5 1.4s-.8.5-1.4.5c-.6 0-1.1-.2-1.4-.5s-.5-.9-.5-1.4zM314.5 208.7c0 1.5-.4 2.7-1.2 3.5s-1.9 1.2-3.3 1.2-2.6-.3-3.6-.8v-3c1.2.8 2.3 1.2 3.4 1.2.6 0 1-.2 1.3-.5.3-.3.4-.8.4-1.3s-.2-1-.5-1.5c-.4-.5-.9-1-1.7-1.5-.7-.5-1.2-.9-1.6-1.4-.4-.4-.6-.9-.8-1.5-.2-.6-.3-1.2-.3-1.9 0-1.4.4-2.5 1.2-3.3.8-.8 1.8-1.2 3.1-1.2s2.5.4 3.6 1.1l-1 2.4c-.4-.2-.7-.4-1.1-.6s-.8-.2-1.3-.2-.9.2-1.1.5-.4.8-.4 1.3c0 .6.2 1 .5 1.4.3.4.9.9 1.7 1.4 1.1.7 1.8 1.4 2.2 2.2.3.7.5 1.5.5 2.5zM318.6 211.7c0-.6.2-1 .5-1.4.3-.3.8-.5 1.4-.5s1.1.2 1.4.5c.3.3.5.8.5 1.4 0 .6-.2 1-.5 1.4s-.8.5-1.4.5c-.6 0-1.1-.2-1.4-.5s-.5-.9-.5-1.4zM335 213.2l-.9-4.1h-4.3l-.9 4.1h-3l4-16.4h4.1l4.1 16.4H335zm-1.5-6.8l-.9-3.8c-.1-.2-.2-.8-.4-1.7s-.3-1.5-.3-1.9c-.1.6-.2 1.3-.4 2.1-.1.8-.5 2.5-1.2 5.3h3.2z"/></g><g><path d="M75.8 237.9l2.2-3.7c2.3.6 3.3.1 4.5-2.5l6.5-14.3c.8-1.7.7-2.3-.5-2.8-.5-.2-1.1-.5-1.1-.5l-.1-.8 1.8-3 6.8 3.1c2 .9 8.9 3.8 8.9 3.8l-2.4 3.9c-3.1-1-4-.9-4.7.5-2 3.7-4.1 7.9-7.1 14.4-.6 1.3-.4 2 .7 2.5 3 1.4 4.3.5 7.2-5.1l5.7 1.9.2.9s-3.1 5.1-6.2 10.9l-.9.4s-6.3-3.2-12.3-6c-4.5-2-9.2-3.6-9.2-3.6zM106.5 246.1c1-2.8 3.3-4 6.1-3.1 2.6.9 3.6 2.9 2.7 5.6-1 2.8-3.3 4-6 3.1-2.8-.9-3.8-2.9-2.8-5.6zM151 258.5l.2.5-1.2 3.5s-3.9-1-6.4-1.7c-4.3-1.1-8.7-1.9-8.7-1.9l-.3-.5 1.2-3.7c2.8.4 3 .4 3.3-.8 0-.2.1-.5.1-.8l.2-1.8c-1.2-.3-2.6-.7-3.5-.9-1-.3-2.5-.5-3.7-.7l-.9 1.9c-.2.5-.3.8-.4 1-.2.8 0 .9 1.2 1.2l1.2.3.3.5-1.3 3.7s-4.2-1.2-6.9-1.8c-2.8-.7-6-1.4-6-1.4l1.3-3.9c1.2 0 2.1-.6 2.9-1.9l12.8-20.9 12.1 2.2.5.7s.1 18.5.2 23.7c-.1 2 .4 3 1.8 3.5zm-15.9-14.2l2.3.6c.7.2 1.5.3 2.4.5l.4-8.3-1-.2-4.1 7.4zM156.6 259.3c.5-2.9 2.6-4.5 5.5-4 2.7.5 4 2.3 3.5 5.1-.5 2.9-2.6 4.5-5.5 4-2.8-.5-4-2.3-3.5-5.1zM194.6 261.3c-.3 2.6-.1 3.2 1.1 3.4 1 .1 1.5 0 1.5 0l.3.5-.8 3.8s-5.8-.8-7.7-1c-2.9-.3-7.7-.6-7.7-.6l.8-3.9c2.6-.3 3.1-.9 3.4-3.5l1.7-16c.2-1.9-.1-2.4-1.4-2.5-.5-.1-1.2-.1-1.2-.1l-.3-.7.7-3.4 7.5.8c2 .2 8 .6 8 .6l-.8 4.1c-2.2.1-2.6.4-2.9 2.1-.7 4.4-1.5 10.4-2.2 16.4zM226.5 255.3l.3-8.5c0-1.6-.3-2-1.4-2.1l-1.4-.1-.2-.5.4-3.8s5.1.5 7.7.6 6.5.2 6.5.2l-.4 4.2c-2 .2-2.7.9-2.8 2.8l-1.8 23.1-8.8.1c-4.8-8.9-8.7-15.7-8.7-15.7h-.7l-.3 8.3c0 1.8.3 2.4 1.7 2.5.6 0 1.6-.1 1.6-.1l.4.4-.7 3.9s-5.2-.5-7.2-.6c-3.2-.2-7.2 0-7.2 0l.7-4.2c1.8-.1 2.7-.9 2.8-2.8l1.4-16.2c.1-2.1-.4-2.6-3.3-3.1l-.5-.7.5-3.8s3.5.4 6.9.6c2.5.1 6 .1 6 .1 3.8 7.8 8.2 15.3 8.2 15.3l.3.1zM245.2 247.7c0-1.9-.3-2.4-1.6-2.4-.5 0-1.2.1-1.2.1l-.4-.6.4-3.5h7.5c2 0 8-.3 8-.3l-.3 4.2c-2.3.6-2.7 1-2.8 2.6l-.2 16.3c0 2.6.3 3.2 1.5 3.2 1 0 1.5-.2 1.5-.2l.4.5-.4 3.9s-5.8-.1-7.8-.1c-2.9 0-7.7.3-7.7.3l.3-4c2.5-.5 3-1.2 3-3.8l-.2-16.2zm9.9 7.4l5.2-6.2c.6-.6 1-1.5 1-2.1 0-1-.5-1.4-1.9-1.5l-.3-.5.4-3.8s4.5.1 6.7.1c1.7 0 6.7-.3 6.7-.3l.4.7-.4 3.5c-2.3 1.3-4.4 3.4-6.8 6.9l-1.9 2.8 4.4 8.4c1.4 2.7 2.6 3.9 4.6 4.2l.5.7-.5 3.5s-6 .6-7.1.6c-2.4 0-3.7-.9-5.1-3.7l-6-11.7.1-1.6zM289.1 269l-.6-.8s.5-4.7.5-7.7l5.8-.8c.2 3.3 1.8 4.6 4.4 4.5 1.9-.1 3-1 2.9-2.1-.1-2-3.5-2.8-7-4.1-3.6-1.3-7.4-3.3-7.7-8.2-.4-6 5-10.3 13.6-10.9 5.1-.3 9 .7 9 .7l.6 1s-.6 4-.7 8.2l-5.4.7-.6-.3-.1-.7c-.1-2.2-1.4-3.2-3.6-3-1.7.1-2.9 1-2.8 2.3.1 1.9 3 2.6 6.1 3.7 3.9 1.3 8.2 3.1 8.5 8.3.4 6-4.9 10.1-13.9 10.7-5.1.3-9-1.5-9-1.5zM324.3 243c-2.5.3-2.8 1.5-2.6 6.7l-5.7 1.1s-.5-6.9-1.1-12.2l.5-.7 5.6-.2 14.5-1.8 5.5-1.2.7.6c.7 5.4 1.7 11.7 1.7 11.7l-5.7 1.1c-1.2-5.7-1.5-6.6-4-6.3.4 4.6 1.1 10.8 1.8 17 .3 2.4 1 3.1 2.8 2.9 1.2-.1 2.3-.4 2.3-.4l.3.2.1 4.4s-6.8.5-9.4.9c-3 .4-9.2 1.5-9.2 1.5l-.1-4.3c3.8-.8 4.4-1.6 4.1-4.5l-2.1-16.5zM363.1 243.7l.6-.1.9-5.6c.2-.9.3-1.7.2-2.1-.1-.5-.6-.6-1.9-.4l-.2-.2-.3-3.7 7.2-1.4c2.4-.5 5.1-1.2 5.1-1.2l.3.3.4 4c-1.7 1.5-3.2 3.9-4 6.7l-2.6 9.1c-.4 1.7-.2 2.8.1 4.4.4 2.1 1.1 2.8 2.8 2.4 1.1-.2 2.3-.6 2.3-.6l.3.2.4 4.4s-6.9 1-9.5 1.6c-2.9.6-9.1 2.2-9.1 2.2l-.4-4.3c3.8-1 4.5-1.8 4-4.5l-.1-.7c-.3-1.3-.8-2.3-2.1-3.9l-6.7-8.2c-1.2-1.5-3-2.5-5.3-3l-.2-.2-.3-4.2s5.4-.9 6.9-1.2c2.1-.4 8.2-1.9 8.2-1.9l.4.4.3 3.8c-1.3.2-1.8.7-1.7 1.5.3.8 2.7 4.3 4 6.4zM386.6 257.6l-.8-4.2c2.1-1 2.5-2.1 1.8-4.8l-4.4-15.1c-.5-1.8-1-2.2-2.2-1.8-.5.1-1.1.4-1.1.4l-.6-.5-.6-3.5 7.2-2.1c2.1-.6 9.2-2.9 9.2-2.9l.8 4.5c-3 1.2-3.6 1.9-3.3 3.5.9 4.1 2.1 8.7 4 15.5.4 1.4 1 1.8 2.2 1.4 3.2-.9 3.6-2.5 2.2-8.5l5.6-2.2.7.5s1 5.9 2.4 12.3l-.5.9s-6.8 1.7-13.2 3.5c-4.7 1.3-9.4 3.1-9.4 3.1zM428.5 237.1c3.7-1.6 4.1-2.6 3-6.7l5.3-2.8.8.4s1.1 4.5 2.7 9.3l-.3 1s-7.2 2.8-13.8 5.7c-4.4 1.9-8.8 4.4-8.8 4.4l-1.3-4.1c2-1.3 2.2-2.4 1.1-5L411 225c-.8-1.8-1.2-2.2-2.2-1.8-.5.2-1.1.6-1.1.6l-.8-.4-1.1-3.5s6.1-2.5 10-4.2c5.3-2.3 10.7-5 12.9-6.3l.9.4s1.2 4.8 2.8 8.9l-5.7 3s-.4-1.1-.6-1.6c-.8-1.9-1.8-2-5.2-.5-1.2.5-1.4.9-.9 1.8l1.9 4.9c.8-.4 2.3-1 3.5-1.5 1.3-.6 4.6-2.3 4.6-2.3l.8.4 1.6 5.2s-3.2 1.3-5.2 2.1c-1.2.5-2.4 1.2-3.1 1.7.6 1.5 1.1 2.7 1.6 3.6.6 2.2 1 2.4 2.8 1.6z"/></g></svg>